<?xml version="1.0" encoding="UTF-8" standalone="no"?>
<!DOCTYPE svg PUBLIC "-//W3C//DTD SVG 1.1//EN" "http://www.w3.org/Graphics/SVG/1.1/DTD/svg11.dtd">
<svg version="1.1" xmlns="http://www.w3.org/2000/svg" xmlns:xlink="http://www.w3.org/1999/xlink" x="0px" y="0px"
	viewBox="0 0 347.76 113.4" style="enable-background:new 0 0 347.76 113.4;" xml:space="preserve">
	<defs>
		<path d="M515.72 15.02L519.16 15.38L522.57 15.86L525.92 16.48L529.23 17.21L532.49 18.09L535.7 19.09L538.85 20.2L541.94 21.45L544.96 22.79L547.93 24.27L550.83 25.84L553.67 27.53L556.43 29.32L559.13 31.21L561.73 33.21L564.25 35.29L566.7 37.46L569.06 39.74L571.33 42.1L573.52 44.55L575.61 47.08L577.6 49.69L579.49 52.37L581.27 55.13L582.95 57.96L584.54 60.86L586 63.83L587.36 66.87L588.59 69.96L589.71 73.1L590.71 76.31L591.58 79.57L592.33 82.89L592.95 86.24L593.44 89.64L593.79 93.07L594 96.56L594.07 100.08L594 103.6L593.79 107.07L593.44 110.51L592.95 113.91L592.33 117.27L591.58 120.58L590.71 123.84L589.71 127.05L588.59 130.18L587.36 133.28L586 136.31L584.54 139.28L582.95 142.18L581.27 145.02L579.49 147.77L577.6 150.46L575.61 153.08L573.52 155.61L571.33 158.05L569.06 160.41L566.7 162.68L564.25 164.86L561.73 166.95L559.13 168.94L556.43 170.83L553.67 172.62L550.83 174.3L547.93 175.89L544.96 177.35L541.94 178.71L538.85 179.94L535.7 181.06L532.49 182.07L529.23 182.92L525.92 183.67L522.57 184.29L519.16 184.78L515.72 185.13L512.24 185.33L508.72 185.4L505.21 185.33L501.73 185.13L498.29 184.78L494.89 184.29L491.53 183.67L488.22 182.92L484.97 182.07L481.76 181.06L478.61 179.94L475.51 178.71L472.48 177.35L469.51 175.89L466.62 174.3L463.78 172.62L461.02 170.83L458.33 168.94L455.72 166.95L453.19 164.86L450.76 162.68L448.4 160.41L446.12 158.05L443.94 155.61L441.85 153.08L439.86 150.46L437.96 147.77L436.18 145.02L434.49 142.18L432.91 139.28L431.45 136.31L430.1 133.28L428.86 130.18L427.75 127.05L426.75 123.84L425.87 120.58L425.13 117.27L424.51 113.91L424.02 110.51L423.67 107.07L423.46 103.6L423.39 100.08L423.46 96.56L423.67 93.07L424.02 89.64L424.51 86.24L425.13 82.89L425.87 79.57L426.75 76.31L427.75 73.1L428.86 69.96L430.1 66.87L431.45 63.83L432.91 60.86L434.49 57.96L436.18 55.13L437.96 52.37L439.86 49.69L441.85 47.08L443.94 44.55L446.12 42.1L448.4 39.74L450.76 37.46L453.19 35.29L455.72 33.21L458.33 31.21L461.02 29.32L463.78 27.53L466.62 25.84L469.51 24.27L472.48 22.79L475.51 21.45L478.61 20.2L481.76 19.09L484.97 18.09L488.22 17.21L491.53 16.48L494.89 15.86L498.29 15.38L501.73 15.02L505.21 14.81L508.72 14.74L512.24 14.81L515.72 15.02ZM531.16 114.35L529.89 114.52L528.64 114.76L527.41 115.06L526.22 115.42L525.04 115.84L523.92 116.32L522.8 116.86L521.72 117.45L520.69 118.1L519.68 118.79L518.71 119.54L517.79 120.34L516.9 121.18L516.06 122.06L515.28 122.99L514.53 123.95L513.83 124.95L513.18 126L512.59 127.08L512.05 128.17L511.57 129.32L511.15 130.48L510.78 131.69L510.48 132.91L510.24 134.16L510.07 135.43L509.97 136.72L509.93 138.04L509.97 139.34L510.07 140.64L510.24 141.9L510.48 143.16L510.78 144.39L511.15 145.58L511.57 146.74L512.05 147.88L512.59 148.99L513.18 150.07L513.83 151.11L514.53 152.12L515.28 153.09L516.06 154L516.9 154.89L517.79 155.73L518.71 156.52L519.68 157.27L520.69 157.97L521.72 158.62L522.8 159.2L523.92 159.74L525.04 160.22L526.22 160.65L527.41 161.01L528.64 161.31L529.89 161.55L531.16 161.72L532.45 161.83L533.76 161.86L535.08 161.83L536.36 161.72L537.64 161.55L538.9 161.31L540.12 161.01L541.33 160.65L542.5 160.22L543.64 159.74L544.75 159.2L545.83 158.62L546.88 157.97L547.89 157.27L548.86 156.52L549.8 155.73L550.68 154.89L551.53 154L552.34 153.09L553.09 152.12L553.79 151.11L554.44 150.07L555.04 148.99L555.59 147.88L556.08 146.74L556.49 145.58L556.86 144.39L557.17 143.16L557.41 141.9L557.58 140.64L557.69 139.34L557.72 138.04L557.69 136.72L557.58 135.43L557.41 134.16L557.17 132.91L556.86 131.69L556.49 130.48L556.08 129.32L555.59 128.17L555.04 127.08L554.44 126L553.79 124.95L553.09 123.95L552.34 122.99L551.53 122.06L550.68 121.18L549.8 120.34L548.86 119.54L547.89 118.79L546.88 118.1L545.83 117.45L544.75 116.86L543.64 116.32L542.5 115.84L541.33 115.42L540.12 115.06L538.9 114.76L537.64 114.52L536.36 114.35L535.08 114.24L533.76 114.21L532.45 114.24L531.16 114.35ZM469.91 102.64L468.65 102.82L467.4 103.06L466.18 103.36L464.98 103.73L463.8 104.15L462.67 104.64L461.56 105.18L460.48 105.78L459.44 106.44L458.43 107.13L457.47 107.89L456.54 108.69L455.66 109.53L454.81 110.41L454.03 111.35L453.28 112.33L452.58 113.33L451.93 114.38L451.35 115.47L450.82 116.58L450.33 117.73L449.91 118.9L449.55 120.1L449.24 121.33L449.01 122.58L448.83 123.86L448.74 125.15L448.7 126.46L448.74 127.76L448.83 129.06L449.01 130.32L449.24 131.57L449.55 132.8L449.91 134L450.33 135.17L450.82 136.31L451.35 137.42L451.93 138.5L452.58 139.54L453.28 140.54L454.03 141.51L454.81 142.43L455.66 143.32L456.54 144.16L457.47 144.95L458.43 145.7L459.44 146.39L460.48 147.03L461.56 147.62L462.67 148.16L463.8 148.64L464.98 149.07L466.18 149.43L467.4 149.73L468.65 149.97L469.91 150.14L471.21 150.25L472.51 150.28L473.83 150.25L475.11 150.14L476.39 149.97L477.64 149.73L478.86 149.43L480.07 149.07L481.23 148.64L482.38 148.16L483.49 147.62L484.56 147.03L485.61 146.39L486.6 145.7L487.57 144.95L488.49 144.16L489.38 143.32L490.21 142.43L491.01 141.51L491.76 140.54L492.45 139.54L493.09 138.5L493.69 137.42L494.23 136.31L494.71 135.17L495.14 134L495.49 132.8L495.79 131.57L496.03 130.32L496.2 129.06L496.31 127.76L496.34 126.46L496.31 125.15L496.2 123.86L496.03 122.58L495.79 121.33L495.49 120.1L495.14 118.9L494.71 117.73L494.23 116.58L493.69 115.47L493.09 114.38L492.45 113.33L491.76 112.33L491.01 111.35L490.21 110.41L489.38 109.53L488.49 108.69L487.57 107.89L486.6 107.13L485.61 106.44L484.56 105.78L483.49 105.18L482.38 104.64L481.23 104.15L480.07 103.73L478.86 103.36L477.64 103.06L476.39 102.82L475.11 102.64L473.83 102.53L472.51 102.5L471.21 102.53L469.91 102.64ZM505.81 90.58L504.56 90.97L503.38 91.52L502.27 92.19L501.25 92.98L500.34 93.89L499.54 94.91L498.85 96.01L498.3 97.2L497.9 98.45L497.65 99.78L497.56 101.15L497.65 102.53L497.9 103.85L498.3 105.11L498.85 106.3L499.54 107.4L500.34 108.41L501.25 109.31L502.27 110.1L503.38 110.78L504.56 111.32L505.81 111.72L507.1 111.97L508.45 112.05L509.84 111.97L511.16 111.72L512.43 111.32L513.63 110.78L514.75 110.1L515.77 109.31L516.7 108.41L517.51 107.4L518.2 106.3L518.74 105.11L519.15 103.85L519.41 102.53L519.5 101.15L519.41 99.78L519.15 98.45L518.74 97.2L518.2 96.01L517.51 94.91L516.7 93.89L515.77 92.98L514.75 92.19L513.63 91.52L512.43 90.97L511.16 90.58L509.84 90.34L508.45 90.25L507.1 90.34L505.81 90.58ZM543.01 50.55L541.74 50.73L540.49 50.97L539.26 51.27L538.07 51.63L536.89 52.06L535.76 52.55L534.65 53.09L533.57 53.69L532.53 54.34L531.52 55.03L530.55 55.79L529.63 56.59L528.75 57.43L527.9 58.33L527.12 59.26L526.37 60.24L525.67 61.24L525.02 62.29L524.44 63.37L523.91 64.49L523.42 65.64L523 66.81L522.64 68.02L522.33 69.24L522.1 70.49L521.92 71.77L521.82 73.05L521.78 74.37L521.82 75.67L521.92 76.97L522.1 78.23L522.33 79.49L522.64 80.71L523 81.91L523.42 83.08L523.91 84.22L524.44 85.33L525.02 86.41L525.67 87.45L526.37 88.46L527.12 89.42L527.9 90.34L528.75 91.22L529.63 92.06L530.55 92.85L531.52 93.6L532.53 94.3L533.57 94.95L534.65 95.53L535.76 96.07L536.89 96.55L538.07 96.98L539.26 97.34L540.49 97.64L541.74 97.88L543.01 98.05L544.3 98.15L545.6 98.18L546.92 98.15L548.2 98.05L549.48 97.88L550.72 97.64L551.95 97.34L553.16 96.98L554.32 96.55L555.47 96.07L556.57 95.53L557.65 94.95L558.69 94.3L559.69 93.6L560.66 92.85L561.58 92.06L562.46 91.22L563.3 90.34L564.1 89.42L564.85 88.46L565.54 87.45L566.18 86.41L566.78 85.33L567.32 84.22L567.8 83.08L568.22 81.91L568.58 80.71L568.88 79.49L569.12 78.23L569.29 76.97L569.4 75.67L569.43 74.37L569.4 73.05L569.29 71.77L569.12 70.49L568.88 69.24L568.58 68.02L568.22 66.81L567.8 65.64L567.32 64.49L566.78 63.37L566.18 62.29L565.54 61.24L564.85 60.24L564.1 59.26L563.3 58.33L562.46 57.43L561.58 56.59L560.66 55.79L559.69 55.03L558.69 54.34L557.65 53.69L556.57 53.09L555.47 52.55L554.32 52.06L553.16 51.63L551.95 51.27L550.72 50.97L549.48 50.73L548.2 50.55L546.92 50.45L545.6 50.41L544.3 50.45L543.01 50.55ZM482.57 38.83L481.3 39.01L480.05 39.24L478.83 39.55L477.63 39.91L476.46 40.33L475.31 40.81L474.21 41.35L473.13 41.94L472.08 42.59L471.08 43.28L470.12 44.03L469.2 44.83L468.32 45.67L467.48 46.54L466.68 47.47L465.94 48.44L465.24 49.44L464.59 50.49L464 51.56L463.46 52.67L462.99 53.82L462.56 54.97L462.2 56.17L461.9 57.39L461.66 58.65L461.49 59.92L461.38 61.21L461.35 62.52L461.38 63.83L461.49 65.13L461.66 66.39L461.9 67.64L462.2 68.87L462.56 70.07L462.99 71.24L463.46 72.38L464 73.48L464.59 74.56L465.24 75.6L465.94 76.6L466.68 77.57L467.48 78.49L468.32 79.38L469.2 80.22L470.12 81.01L471.08 81.76L472.08 82.46L473.13 83.1L474.21 83.69L475.31 84.23L476.46 84.71L477.63 85.14L478.83 85.5L480.05 85.8L481.3 86.04L482.57 86.21L483.86 86.32L485.18 86.35L486.49 86.32L487.78 86.21L489.05 86.04L490.29 85.8L491.53 85.5L492.72 85.14L493.9 84.71L495.05 84.23L496.16 83.69L497.25 83.1L498.29 82.46L499.3 81.76L500.28 81.01L501.21 80.22L502.1 79.38L502.95 78.49L503.75 77.57L504.5 76.6L505.2 75.6L505.86 74.56L506.45 73.48L506.98 72.38L507.47 71.24L507.9 70.07L508.27 68.87L508.57 67.64L508.81 66.39L508.99 65.13L509.09 63.83L509.13 62.52L509.09 61.21L508.99 59.92L508.81 58.65L508.57 57.39L508.27 56.17L507.9 54.97L507.47 53.82L506.98 52.67L506.45 51.56L505.86 50.49L505.2 49.44L504.5 48.44L503.75 47.47L502.95 46.54L502.1 45.67L501.21 44.83L500.28 44.03L499.3 43.28L498.29 42.59L497.25 41.94L496.16 41.35L495.05 40.81L493.9 40.33L492.72 39.91L491.53 39.55L490.29 39.24L489.05 39.01L487.78 38.83L486.49 38.73L485.18 38.69L483.86 38.73L482.57 38.83Z" id="apqI64bQZ"></path><path d="M515.72 15.02L519.16 15.38L522.57 15.86L525.92 16.48L529.23 17.21L532.49 18.09L535.7 19.09L538.85 20.2L541.94 21.45L544.96 22.79L547.93 24.27L550.83 25.84L553.67 27.53L556.43 29.32L559.13 31.21L561.73 33.21L564.25 35.29L566.7 37.46L569.06 39.74L571.33 42.1L573.52 44.55L575.61 47.08L577.6 49.69L579.49 52.37L581.27 55.13L582.95 57.96L584.54 60.86L586 63.83L587.36 66.87L588.59 69.96L589.71 73.1L590.71 76.31L591.58 79.57L592.33 82.89L592.95 86.24L593.44 89.64L593.79 93.07L594 96.56L594.07 100.08L594 103.6L593.79 107.07L593.44 110.51L592.95 113.91L592.33 117.27L591.58 120.58L590.71 123.84L589.71 127.05L588.59 130.18L587.36 133.28L586 136.31L584.54 139.28L582.95 142.18L581.27 145.02L579.49 147.77L577.6 150.46L575.61 153.08L573.52 155.61L571.33 158.05L569.06 160.41L566.7 162.68L564.25 164.86L561.73 166.95L559.13 168.94L556.43 170.83L553.67 172.62L550.83 174.3L547.93 175.89L544.96 177.35L541.94 178.71L538.85 179.94L535.7 181.06L532.49 182.07L529.23 182.92L525.92 183.67L522.57 184.29L519.16 184.78L515.72 185.13L512.24 185.33L508.72 185.4L505.21 185.33L501.73 185.13L498.29 184.78L494.89 184.29L491.53 183.67L488.22 182.92L484.97 182.07L481.76 181.06L478.61 179.94L475.51 178.71L472.48 177.35L469.51 175.89L466.62 174.3L463.78 172.62L461.02 170.83L458.33 168.94L455.72 166.95L453.19 164.86L450.76 162.68L448.4 160.41L446.12 158.05L443.94 155.61L441.85 153.08L439.86 150.46L437.96 147.77L436.18 145.02L434.49 142.18L432.91 139.28L431.45 136.31L430.1 133.28L428.86 130.18L427.75 127.05L426.75 123.84L425.87 120.58L425.13 117.27L424.51 113.91L424.02 110.51L423.67 107.07L423.46 103.6L423.39 100.08L423.46 96.56L423.67 93.07L424.02 89.64L424.51 86.24L425.13 82.89L425.87 79.57L426.75 76.31L427.75 73.1L428.86 69.96L430.1 66.87L431.45 63.83L432.91 60.86L434.49 57.96L436.18 55.13L437.96 52.37L439.86 49.69L441.85 47.08L443.94 44.55L446.12 42.1L448.4 39.74L450.76 37.46L453.19 35.29L455.72 33.21L458.33 31.21L461.02 29.32L463.78 27.53L466.62 25.84L469.51 24.27L472.48 22.79L475.51 21.45L478.61 20.2L481.76 19.09L484.97 18.09L488.22 17.21L491.53 16.48L494.89 15.86L498.29 15.38L501.73 15.02L505.21 14.81L508.72 14.74L512.24 14.81L515.72 15.02ZM531.16 114.35L529.89 114.52L528.64 114.76L527.41 115.06L526.22 115.42L525.04 115.84L523.92 116.32L522.8 116.86L521.72 117.45L520.69 118.1L519.68 118.79L518.71 119.54L517.79 120.34L516.9 121.18L516.06 122.06L515.28 122.99L514.53 123.95L513.83 124.95L513.18 126L512.59 127.08L512.05 128.17L511.57 129.32L511.15 130.48L510.78 131.69L510.48 132.91L510.24 134.16L510.07 135.43L509.97 136.72L509.93 138.04L509.97 139.34L510.07 140.64L510.24 141.9L510.48 143.16L510.78 144.39L511.15 145.58L511.57 146.74L512.05 147.88L512.59 148.99L513.18 150.07L513.83 151.11L514.53 152.12L515.28 153.09L516.06 154L516.9 154.89L517.79 155.73L518.71 156.52L519.68 157.27L520.69 157.97L521.72 158.62L522.8 159.2L523.92 159.74L525.04 160.22L526.22 160.65L527.41 161.01L528.64 161.31L529.89 161.55L531.16 161.72L532.45 161.83L533.76 161.86L535.08 161.83L536.36 161.72L537.64 161.55L538.9 161.31L540.12 161.01L541.33 160.65L542.5 160.22L543.64 159.74L544.75 159.2L545.83 158.62L546.88 157.97L547.89 157.27L548.86 156.52L549.8 155.73L550.68 154.89L551.53 154L552.34 153.09L553.09 152.12L553.79 151.11L554.44 150.07L555.04 148.99L555.59 147.88L556.08 146.74L556.49 145.58L556.86 144.39L557.17 143.16L557.41 141.9L557.58 140.64L557.69 139.34L557.72 138.04L557.69 136.72L557.58 135.43L557.41 134.16L557.17 132.91L556.86 131.69L556.49 130.48L556.08 129.32L555.59 128.17L555.04 127.08L554.44 126L553.79 124.95L553.09 123.95L552.34 122.99L551.53 122.06L550.68 121.18L549.8 120.34L548.86 119.54L547.89 118.79L546.88 118.1L545.83 117.45L544.75 116.86L543.64 116.32L542.5 115.84L541.33 115.42L540.12 115.06L538.9 114.76L537.64 114.52L536.36 114.35L535.08 114.24L533.76 114.21L532.45 114.24L531.16 114.35ZM469.91 102.64L468.65 102.82L467.4 103.06L466.18 103.36L464.98 103.73L463.8 104.15L462.67 104.64L461.56 105.18L460.48 105.78L459.44 106.44L458.43 107.13L457.47 107.89L456.54 108.69L455.66 109.53L454.81 110.41L454.03 111.35L453.28 112.33L452.58 113.33L451.93 114.38L451.35 115.47L450.82 116.58L450.33 117.73L449.91 118.9L449.55 120.1L449.24 121.33L449.01 122.58L448.83 123.86L448.74 125.15L448.7 126.46L448.74 127.76L448.83 129.06L449.01 130.32L449.24 131.57L449.55 132.8L449.91 134L450.33 135.17L450.82 136.31L451.35 137.42L451.93 138.5L452.58 139.54L453.28 140.54L454.03 141.51L454.81 142.43L455.66 143.32L456.54 144.16L457.47 144.95L458.43 145.7L459.44 146.39L460.48 147.03L461.56 147.62L462.67 148.16L463.8 148.64L464.98 149.07L466.18 149.43L467.4 149.73L468.65 149.97L469.91 150.14L471.21 150.25L472.51 150.28L473.83 150.25L475.11 150.14L476.39 149.97L477.64 149.73L478.86 149.43L480.07 149.07L481.23 148.64L482.38 148.16L483.49 147.62L484.56 147.03L485.61 146.39L486.6 145.7L487.57 144.95L488.49 144.16L489.38 143.32L490.21 142.43L491.01 141.51L491.76 140.54L492.45 139.54L493.09 138.5L493.69 137.42L494.23 136.31L494.71 135.17L495.14 134L495.49 132.8L495.79 131.57L496.03 130.32L496.2 129.06L496.31 127.76L496.34 126.46L496.31 125.15L496.2 123.86L496.03 122.58L495.79 121.33L495.49 120.1L495.14 118.9L494.71 117.73L494.23 116.58L493.69 115.47L493.09 114.38L492.45 113.33L491.76 112.33L491.01 111.35L490.21 110.41L489.38 109.53L488.49 108.69L487.57 107.89L486.6 107.13L485.61 106.44L484.56 105.78L483.49 105.18L482.38 104.64L481.23 104.15L480.07 103.73L478.86 103.36L477.64 103.06L476.39 102.82L475.11 102.64L473.83 102.53L472.51 102.5L471.21 102.53L469.91 102.64ZM505.81 90.58L504.56 90.97L503.38 91.52L502.27 92.19L501.25 92.98L500.34 93.89L499.54 94.91L498.85 96.01L498.3 97.2L497.9 98.45L497.65 99.78L497.56 101.15L497.65 102.53L497.9 103.85L498.3 105.11L498.85 106.3L499.54 107.4L500.34 108.41L501.25 109.31L502.27 110.1L503.38 110.78L504.56 111.32L505.81 111.72L507.1 111.97L508.45 112.05L509.84 111.97L511.16 111.72L512.43 111.32L513.63 110.78L514.75 110.1L515.77 109.31L516.7 108.41L517.51 107.4L518.2 106.3L518.74 105.11L519.15 103.85L519.41 102.53L519.5 101.15L519.41 99.78L519.15 98.45L518.74 97.2L518.2 96.01L517.51 94.91L516.7 93.89L515.77 92.98L514.75 92.19L513.63 91.52L512.43 90.97L511.16 90.58L509.84 90.34L508.45 90.25L507.1 90.34L505.81 90.58ZM543.01 50.55L541.74 50.73L540.49 50.97L539.26 51.27L538.07 51.63L536.89 52.06L535.76 52.55L534.65 53.09L533.57 53.69L532.53 54.34L531.52 55.03L530.55 55.79L529.63 56.59L528.75 57.43L527.9 58.33L527.12 59.26L526.37 60.24L525.67 61.24L525.02 62.29L524.44 63.37L523.91 64.49L523.42 65.64L523 66.81L522.64 68.02L522.33 69.24L522.1 70.49L521.92 71.77L521.82 73.05L521.78 74.37L521.82 75.67L521.92 76.97L522.1 78.23L522.33 79.49L522.64 80.71L523 81.91L523.42 83.08L523.91 84.22L524.44 85.33L525.02 86.41L525.67 87.45L526.37 88.46L527.12 89.42L527.9 90.34L528.75 91.22L529.63 92.06L530.55 92.85L531.52 93.6L532.53 94.3L533.57 94.95L534.65 95.53L535.76 96.07L536.89 96.55L538.07 96.98L539.26 97.34L540.49 97.64L541.74 97.88L543.01 98.05L544.3 98.15L545.6 98.18L546.92 98.15L548.2 98.05L549.48 97.88L550.72 97.64L551.95 97.34L553.16 96.98L554.32 96.55L555.47 96.07L556.57 95.53L557.65 94.95L558.69 94.3L559.69 93.6L560.66 92.85L561.58 92.06L562.46 91.22L563.3 90.34L564.1 89.42L564.85 88.46L565.54 87.45L566.18 86.41L566.78 85.33L567.32 84.22L567.8 83.08L568.22 81.91L568.58 80.71L568.88 79.49L569.12 78.23L569.29 76.97L569.4 75.67L569.43 74.37L569.4 73.05L569.29 71.77L569.12 70.49L568.88 69.24L568.58 68.02L568.22 66.81L567.8 65.64L567.32 64.49L566.78 63.37L566.18 62.29L565.54 61.24L564.85 60.24L564.1 59.26L563.3 58.33L562.46 57.43L561.58 56.59L560.66 55.79L559.69 55.03L558.69 54.34L557.65 53.69L556.57 53.09L555.47 52.55L554.32 52.06L553.16 51.63L551.95 51.27L550.72 50.97L549.48 50.73L548.2 50.55L546.92 50.45L545.6 50.41L544.3 50.45L543.01 50.55ZM482.57 38.83L481.3 39.01L480.05 39.24L478.83 39.55L477.63 39.91L476.46 40.33L475.31 40.81L474.21 41.35L473.13 41.94L472.08 42.59L471.08 43.28L470.12 44.03L469.2 44.83L468.32 45.67L467.48 46.54L466.68 47.47L465.94 48.44L465.24 49.44L464.59 50.49L464 51.56L463.46 52.67L462.99 53.82L462.56 54.97L462.2 56.17L461.9 57.39L461.66 58.65L461.49 59.92L461.38 61.21L461.35 62.52L461.38 63.83L461.49 65.13L461.66 66.39L461.9 67.64L462.2 68.87L462.56 70.07L462.99 71.24L463.46 72.38L464 73.48L464.59 74.56L465.24 75.6L465.94 76.6L466.68 77.57L467.48 78.49L468.32 79.38L469.2 80.22L470.12 81.01L471.08 81.76L472.08 82.46L473.13 83.1L474.21 83.69L475.31 84.23L476.46 84.71L477.63 85.14L478.83 85.5L480.05 85.8L481.3 86.04L482.57 86.21L483.86 86.32L485.18 86.35L486.49 86.32L487.78 86.21L489.05 86.04L490.29 85.8L491.53 85.5L492.72 85.14L493.9 84.71L495.05 84.23L496.16 83.69L497.25 83.1L498.29 82.46L499.3 81.76L500.28 81.01L501.21 80.22L502.1 79.38L502.95 78.49L503.75 77.57L504.5 76.6L505.2 75.6L505.86 74.56L506.45 73.48L506.98 72.38L507.47 71.24L507.9 70.07L508.27 68.87L508.57 67.64L508.81 66.39L508.99 65.13L509.09 63.83L509.13 62.52L509.09 61.21L508.99 59.92L508.81 58.65L508.57 57.39L508.27 56.17L507.9 54.97L507.47 53.82L506.98 52.67L506.45 51.56L505.86 50.49L505.2 49.44L504.5 48.44L503.75 47.47L502.95 46.54L502.1 45.67L501.21 44.83L500.28 44.03L499.3 43.28L498.29 42.59L497.25 41.94L496.16 41.35L495.05 40.81L493.9 40.33L492.72 39.91L491.53 39.55L490.29 39.24L489.05 39.01L487.78 38.83L486.49 38.73L485.18 38.69L483.86 38.73L482.57 38.83Z" id="d2lZUbUQVg"></path><path d="M515.72 15.02L519.16 15.38L522.57 15.86L525.92 16.48L529.23 17.21L532.49 18.09L535.7 19.09L538.85 20.2L541.94 21.45L544.96 22.79L547.93 24.27L550.83 25.84L553.67 27.53L556.43 29.32L559.13 31.21L561.73 33.21L564.25 35.29L566.7 37.46L569.06 39.74L571.33 42.1L573.52 44.55L575.61 47.08L577.6 49.69L579.49 52.37L581.27 55.13L582.95 57.96L584.54 60.86L586 63.83L587.36 66.87L588.59 69.96L589.71 73.1L590.71 76.31L591.58 79.57L592.33 82.89L592.95 86.24L593.44 89.64L593.79 93.07L594 96.56L594.07 100.08L594 103.6L593.79 107.07L593.44 110.51L592.95 113.91L592.33 117.27L591.58 120.58L590.71 123.84L589.71 127.05L588.59 130.18L587.36 133.28L586 136.31L584.54 139.28L582.95 142.18L581.27 145.02L579.49 147.77L577.6 150.46L575.61 153.08L573.52 155.61L571.33 158.05L569.06 160.41L566.7 162.68L564.25 164.86L561.73 166.95L559.13 168.94L556.43 170.83L553.67 172.62L550.83 174.3L547.93 175.89L544.96 177.35L541.94 178.71L538.85 179.94L535.7 181.06L532.49 182.07L529.23 182.92L525.92 183.67L522.57 184.29L519.16 184.78L515.72 185.13L512.24 185.33L508.72 185.4L505.21 185.33L501.73 185.13L498.29 184.78L494.89 184.29L491.53 183.67L488.22 182.92L484.97 182.07L481.76 181.06L478.61 179.94L475.51 178.71L472.48 177.35L469.51 175.89L466.62 174.3L463.78 172.62L461.02 170.83L458.33 168.94L455.72 166.95L453.19 164.86L450.76 162.68L448.4 160.41L446.12 158.05L443.94 155.61L441.85 153.08L439.86 150.46L437.96 147.77L436.18 145.02L434.49 142.18L432.91 139.28L431.45 136.31L430.1 133.28L428.86 130.18L427.75 127.05L426.75 123.84L425.87 120.58L425.13 117.27L424.51 113.91L424.02 110.51L423.67 107.07L423.46 103.6L423.39 100.08L423.46 96.56L423.67 93.07L424.02 89.64L424.51 86.24L425.13 82.89L425.87 79.57L426.75 76.31L427.75 73.1L428.86 69.96L430.1 66.87L431.45 63.83L432.91 60.86L434.49 57.96L436.18 55.13L437.96 52.37L439.86 49.69L441.85 47.08L443.94 44.55L446.12 42.1L448.4 39.74L450.76 37.46L453.19 35.29L455.72 33.21L458.33 31.21L461.02 29.32L463.78 27.53L466.62 25.84L469.51 24.27L472.48 22.79L475.51 21.45L478.61 20.2L481.76 19.09L484.97 18.09L488.22 17.21L491.53 16.48L494.89 15.86L498.29 15.38L501.73 15.02L505.21 14.81L508.72 14.74L512.24 14.81L515.72 15.02ZM531.16 114.35L529.89 114.52L528.64 114.76L527.41 115.06L526.22 115.42L525.04 115.84L523.92 116.32L522.8 116.86L521.72 117.45L520.69 118.1L519.68 118.79L518.71 119.54L517.79 120.34L516.9 121.18L516.06 122.06L515.28 122.99L514.53 123.95L513.83 124.95L513.18 126L512.59 127.08L512.05 128.17L511.57 129.32L511.15 130.48L510.78 131.69L510.48 132.91L510.24 134.16L510.07 135.43L509.97 136.72L509.93 138.04L509.97 139.34L510.07 140.64L510.24 141.9L510.48 143.16L510.78 144.39L511.15 145.58L511.57 146.74L512.05 147.88L512.59 148.99L513.18 150.07L513.83 151.11L514.53 152.12L515.28 153.09L516.06 154L516.9 154.89L517.79 155.73L518.71 156.52L519.68 157.27L520.69 157.97L521.72 158.62L522.8 159.2L523.92 159.74L525.04 160.22L526.22 160.65L527.41 161.01L528.64 161.31L529.89 161.55L531.16 161.72L532.45 161.83L533.76 161.86L535.08 161.83L536.36 161.72L537.64 161.55L538.9 161.31L540.12 161.01L541.33 160.65L542.5 160.22L543.64 159.74L544.75 159.2L545.83 158.62L546.88 157.97L547.89 157.27L548.86 156.52L549.8 155.73L550.68 154.89L551.53 154L552.34 153.09L553.09 152.12L553.79 151.11L554.44 150.07L555.04 148.99L555.59 147.88L556.08 146.74L556.49 145.58L556.86 144.39L557.17 143.16L557.41 141.9L557.58 140.64L557.69 139.34L557.72 138.04L557.69 136.72L557.58 135.43L557.41 134.16L557.17 132.91L556.86 131.69L556.49 130.48L556.08 129.32L555.59 128.17L555.04 127.08L554.44 126L553.79 124.95L553.09 123.95L552.34 122.99L551.53 122.06L550.68 121.18L549.8 120.34L548.86 119.54L547.89 118.79L546.88 118.1L545.83 117.45L544.75 116.86L543.64 116.32L542.5 115.84L541.33 115.42L540.12 115.06L538.9 114.76L537.64 114.52L536.36 114.35L535.08 114.24L533.76 114.21L532.45 114.24L531.16 114.35ZM469.91 102.64L468.65 102.82L467.4 103.06L466.18 103.36L464.98 103.73L463.8 104.15L462.67 104.64L461.56 105.18L460.48 105.78L459.44 106.44L458.43 107.13L457.47 107.89L456.54 108.69L455.66 109.53L454.81 110.41L454.03 111.35L453.28 112.33L452.58 113.33L451.93 114.38L451.35 115.47L450.82 116.58L450.33 117.73L449.91 118.9L449.55 120.1L449.24 121.33L449.01 122.58L448.83 123.86L448.74 125.15L448.7 126.46L448.74 127.76L448.83 129.06L449.01 130.32L449.24 131.57L449.55 132.8L449.91 134L450.33 135.17L450.82 136.31L451.35 137.42L451.93 138.5L452.58 139.54L453.28 140.54L454.03 141.51L454.81 142.43L455.66 143.32L456.54 144.16L457.47 144.95L458.43 145.7L459.44 146.39L460.48 147.03L461.56 147.62L462.67 148.16L463.8 148.64L464.98 149.07L466.18 149.43L467.4 149.73L468.65 149.97L469.91 150.14L471.21 150.25L472.51 150.28L473.83 150.25L475.11 150.14L476.39 149.97L477.64 149.73L478.86 149.43L480.07 149.07L481.23 148.64L482.38 148.16L483.49 147.62L484.56 147.03L485.61 146.39L486.6 145.7L487.57 144.95L488.49 144.16L489.38 143.32L490.21 142.43L491.01 141.51L491.76 140.54L492.45 139.54L493.09 138.5L493.69 137.42L494.23 136.31L494.71 135.17L495.14 134L495.49 132.8L495.79 131.57L496.03 130.32L496.2 129.06L496.31 127.76L496.34 126.46L496.31 125.15L496.2 123.86L496.03 122.58L495.79 121.33L495.49 120.1L495.14 118.9L494.71 117.73L494.23 116.58L493.69 115.47L493.09 114.38L492.45 113.33L491.76 112.33L491.01 111.35L490.21 110.41L489.38 109.53L488.49 108.69L487.57 107.89L486.6 107.13L485.61 106.44L484.56 105.78L483.49 105.18L482.38 104.64L481.23 104.15L480.07 103.73L478.86 103.36L477.64 103.06L476.39 102.82L475.11 102.64L473.83 102.53L472.51 102.5L471.21 102.53L469.91 102.64ZM505.81 90.58L504.56 90.97L503.38 91.52L502.27 92.19L501.25 92.98L500.34 93.89L499.54 94.91L498.85 96.01L498.3 97.2L497.9 98.45L497.65 99.78L497.56 101.15L497.65 102.53L497.9 103.85L498.3 105.11L498.85 106.3L499.54 107.4L500.34 108.41L501.25 109.31L502.27 110.1L503.38 110.78L504.56 111.32L505.81 111.72L507.1 111.97L508.45 112.05L509.84 111.97L511.16 111.72L512.43 111.32L513.63 110.78L514.75 110.1L515.77 109.31L516.7 108.41L517.51 107.4L518.2 106.3L518.74 105.11L519.15 103.85L519.41 102.53L519.5 101.15L519.41 99.78L519.15 98.45L518.74 97.2L518.2 96.01L517.51 94.91L516.7 93.89L515.77 92.98L514.75 92.19L513.63 91.52L512.43 90.97L511.16 90.58L509.84 90.34L508.45 90.25L507.1 90.34L505.81 90.58ZM543.01 50.55L541.74 50.73L540.49 50.97L539.26 51.27L538.07 51.63L536.89 52.06L535.76 52.55L534.65 53.09L533.57 53.69L532.53 54.34L531.52 55.03L530.55 55.79L529.63 56.59L528.75 57.43L527.9 58.33L527.12 59.26L526.37 60.24L525.67 61.24L525.02 62.29L524.44 63.37L523.91 64.49L523.42 65.64L523 66.81L522.64 68.02L522.33 69.24L522.1 70.49L521.92 71.77L521.82 73.05L521.78 74.37L521.82 75.67L521.92 76.97L522.1 78.23L522.33 79.49L522.64 80.71L523 81.91L523.42 83.08L523.91 84.22L524.44 85.33L525.02 86.41L525.67 87.45L526.37 88.46L527.12 89.42L527.9 90.34L528.75 91.22L529.63 92.06L530.55 92.85L531.52 93.6L532.53 94.3L533.57 94.95L534.65 95.53L535.76 96.07L536.89 96.55L538.07 96.98L539.26 97.34L540.49 97.64L541.74 97.88L543.01 98.05L544.3 98.15L545.6 98.18L546.92 98.15L548.2 98.05L549.48 97.88L550.72 97.64L551.95 97.34L553.16 96.98L554.32 96.55L555.47 96.07L556.57 95.53L557.65 94.95L558.69 94.3L559.69 93.6L560.66 92.85L561.58 92.06L562.46 91.22L563.3 90.34L564.1 89.42L564.85 88.46L565.54 87.45L566.18 86.41L566.78 85.33L567.32 84.22L567.8 83.08L568.22 81.91L568.58 80.71L568.88 79.49L569.12 78.23L569.29 76.97L569.4 75.67L569.43 74.37L569.4 73.05L569.29 71.77L569.12 70.49L568.88 69.24L568.58 68.02L568.22 66.81L567.8 65.64L567.32 64.49L566.78 63.37L566.18 62.29L565.54 61.24L564.85 60.24L564.1 59.26L563.3 58.33L562.46 57.43L561.58 56.59L560.66 55.79L559.69 55.03L558.69 54.34L557.65 53.69L556.57 53.09L555.47 52.55L554.32 52.06L553.16 51.63L551.95 51.27L550.72 50.97L549.48 50.73L548.2 50.55L546.92 50.45L545.6 50.41L544.3 50.45L543.01 50.55ZM482.57 38.83L481.3 39.01L480.05 39.24L478.83 39.55L477.63 39.91L476.46 40.33L475.31 40.81L474.21 41.35L473.13 41.94L472.08 42.59L471.08 43.28L470.12 44.03L469.2 44.83L468.32 45.67L467.48 46.54L466.68 47.47L465.94 48.44L465.24 49.44L464.59 50.49L464 51.56L463.46 52.67L462.99 53.82L462.56 54.97L462.2 56.17L461.9 57.39L461.66 58.65L461.49 59.92L461.38 61.21L461.35 62.52L461.38 63.83L461.49 65.13L461.66 66.39L461.9 67.64L462.2 68.87L462.56 70.07L462.99 71.24L463.46 72.38L464 73.48L464.59 74.56L465.24 75.6L465.94 76.6L466.68 77.57L467.48 78.49L468.32 79.38L469.2 80.22L470.12 81.01L471.08 81.76L472.08 82.46L473.13 83.1L474.21 83.69L475.31 84.23L476.46 84.71L477.63 85.14L478.83 85.5L480.05 85.8L481.3 86.04L482.57 86.21L483.86 86.32L485.18 86.35L486.49 86.32L487.78 86.21L489.05 86.04L490.29 85.8L491.53 85.5L492.72 85.14L493.9 84.71L495.05 84.23L496.16 83.69L497.25 83.1L498.29 82.46L499.3 81.76L500.28 81.01L501.21 80.22L502.1 79.38L502.95 78.49L503.75 77.57L504.5 76.6L505.2 75.6L505.86 74.56L506.45 73.48L506.98 72.38L507.47 71.24L507.9 70.07L508.27 68.87L508.57 67.64L508.81 66.39L508.99 65.13L509.09 63.83L509.13 62.52L509.09 61.21L508.99 59.92L508.81 58.65L508.57 57.39L508.27 56.17L507.9 54.97L507.47 53.82L506.98 52.67L506.45 51.56L505.86 50.49L505.2 49.44L504.5 48.44L503.75 47.47L502.95 46.54L502.1 45.67L501.21 44.83L500.28 44.03L499.3 43.28L498.29 42.59L497.25 41.94L496.16 41.35L495.05 40.81L493.9 40.33L492.72 39.91L491.53 39.55L490.29 39.24L489.05 39.01L487.78 38.83L486.49 38.73L485.18 38.69L483.86 38.73L482.57 38.83Z" id="asqE132Sg"></path><path d="M515.72 15.02L519.16 15.38L522.57 15.86L525.92 16.48L529.23 17.21L532.49 18.09L535.7 19.09L538.85 20.2L541.94 21.45L544.96 22.79L547.93 24.27L550.83 25.84L553.67 27.53L556.43 29.32L559.13 31.21L561.73 33.21L564.25 35.29L566.7 37.46L569.06 39.74L571.33 42.1L573.52 44.55L575.61 47.08L577.6 49.69L579.49 52.37L581.27 55.13L582.95 57.96L584.54 60.86L586 63.83L587.36 66.87L588.59 69.96L589.71 73.1L590.71 76.31L591.58 79.57L592.33 82.89L592.95 86.24L593.44 89.64L593.79 93.07L594 96.56L594.07 100.08L594 103.6L593.79 107.07L593.44 110.51L592.95 113.91L592.33 117.27L591.58 120.58L590.71 123.84L589.71 127.05L588.59 130.18L587.36 133.28L586 136.31L584.54 139.28L582.95 142.18L581.27 145.02L579.49 147.77L577.6 150.46L575.61 153.08L573.52 155.61L571.33 158.05L569.06 160.41L566.7 162.68L564.25 164.86L561.73 166.95L559.13 168.94L556.43 170.83L553.67 172.62L550.83 174.3L547.93 175.89L544.96 177.35L541.94 178.71L538.85 179.94L535.7 181.06L532.49 182.07L529.23 182.92L525.92 183.67L522.57 184.29L519.16 184.78L515.72 185.13L512.24 185.33L508.72 185.4L505.21 185.33L501.73 185.13L498.29 184.78L494.89 184.29L491.53 183.67L488.22 182.92L484.97 182.07L481.76 181.06L478.61 179.94L475.51 178.71L472.48 177.35L469.51 175.89L466.62 174.3L463.78 172.62L461.02 170.83L458.33 168.94L455.72 166.95L453.19 164.86L450.76 162.68L448.4 160.41L446.12 158.05L443.94 155.61L441.85 153.08L439.86 150.46L437.96 147.77L436.18 145.02L434.49 142.18L432.91 139.28L431.45 136.31L430.1 133.28L428.86 130.18L427.75 127.05L426.75 123.84L425.87 120.58L425.13 117.27L424.51 113.91L424.02 110.51L423.67 107.07L423.46 103.6L423.39 100.08L423.46 96.56L423.67 93.07L424.02 89.64L424.51 86.24L425.13 82.89L425.87 79.57L426.75 76.31L427.75 73.1L428.86 69.96L430.1 66.87L431.45 63.83L432.91 60.86L434.49 57.96L436.18 55.13L437.96 52.37L439.86 49.69L441.85 47.08L443.94 44.55L446.12 42.1L448.4 39.74L450.76 37.46L453.19 35.29L455.72 33.21L458.33 31.21L461.02 29.32L463.78 27.53L466.62 25.84L469.51 24.27L472.48 22.79L475.51 21.45L478.61 20.2L481.76 19.09L484.97 18.09L488.22 17.21L491.53 16.48L494.89 15.86L498.29 15.38L501.73 15.02L505.21 14.81L508.72 14.74L512.24 14.81L515.72 15.02ZM531.16 114.35L529.89 114.52L528.64 114.76L527.41 115.06L526.22 115.42L525.04 115.84L523.92 116.32L522.8 116.86L521.72 117.45L520.69 118.1L519.68 118.79L518.71 119.54L517.79 120.34L516.9 121.18L516.06 122.06L515.28 122.99L514.53 123.95L513.83 124.95L513.18 126L512.59 127.08L512.05 128.17L511.57 129.32L511.15 130.48L510.78 131.69L510.48 132.91L510.24 134.16L510.07 135.43L509.97 136.72L509.93 138.04L509.97 139.34L510.07 140.64L510.24 141.9L510.48 143.16L510.78 144.39L511.15 145.58L511.57 146.74L512.05 147.88L512.59 148.99L513.18 150.07L513.83 151.11L514.53 152.12L515.28 153.09L516.06 154L516.9 154.89L517.79 155.73L518.71 156.52L519.68 157.27L520.69 157.97L521.72 158.62L522.8 159.2L523.92 159.74L525.04 160.22L526.22 160.65L527.41 161.01L528.64 161.31L529.89 161.55L531.16 161.72L532.45 161.83L533.76 161.86L535.08 161.83L536.36 161.72L537.64 161.55L538.9 161.31L540.12 161.01L541.33 160.65L542.5 160.22L543.64 159.74L544.75 159.2L545.83 158.62L546.88 157.97L547.89 157.27L548.86 156.52L549.8 155.73L550.68 154.89L551.53 154L552.34 153.09L553.09 152.12L553.79 151.11L554.44 150.07L555.04 148.99L555.59 147.88L556.08 146.74L556.49 145.58L556.86 144.39L557.17 143.16L557.41 141.9L557.58 140.64L557.69 139.34L557.72 138.04L557.69 136.72L557.58 135.43L557.41 134.16L557.17 132.91L556.86 131.69L556.49 130.48L556.08 129.32L555.59 128.17L555.04 127.08L554.44 126L553.79 124.95L553.09 123.95L552.34 122.99L551.53 122.06L550.68 121.18L549.8 120.34L548.86 119.54L547.89 118.79L546.88 118.1L545.83 117.45L544.75 116.86L543.64 116.32L542.5 115.84L541.33 115.42L540.12 115.06L538.9 114.76L537.64 114.52L536.36 114.35L535.08 114.24L533.76 114.21L532.45 114.24L531.16 114.35ZM469.91 102.64L468.65 102.82L467.4 103.06L466.18 103.36L464.98 103.73L463.8 104.15L462.67 104.64L461.56 105.18L460.48 105.78L459.44 106.44L458.43 107.13L457.47 107.89L456.54 108.69L455.66 109.53L454.81 110.41L454.03 111.35L453.28 112.33L452.58 113.33L451.93 114.38L451.35 115.47L450.82 116.58L450.33 117.73L449.91 118.9L449.55 120.1L449.24 121.33L449.01 122.58L448.83 123.86L448.74 125.15L448.7 126.46L448.74 127.76L448.83 129.06L449.01 130.32L449.24 131.57L449.55 132.8L449.91 134L450.33 135.17L450.82 136.31L451.35 137.42L451.93 138.5L452.58 139.54L453.28 140.54L454.03 141.51L454.81 142.43L455.66 143.32L456.54 144.16L457.47 144.95L458.43 145.7L459.44 146.39L460.48 147.03L461.56 147.62L462.67 148.16L463.8 148.64L464.98 149.07L466.18 149.43L467.4 149.73L468.65 149.97L469.91 150.14L471.21 150.25L472.51 150.28L473.83 150.25L475.11 150.14L476.39 149.97L477.64 149.73L478.86 149.43L480.07 149.07L481.23 148.64L482.38 148.16L483.49 147.62L484.56 147.03L485.61 146.39L486.6 145.7L487.57 144.95L488.49 144.16L489.38 143.32L490.21 142.43L491.01 141.51L491.76 140.54L492.45 139.54L493.09 138.5L493.69 137.42L494.23 136.31L494.71 135.17L495.14 134L495.49 132.8L495.79 131.57L496.03 130.32L496.2 129.06L496.31 127.76L496.34 126.46L496.31 125.15L496.2 123.86L496.03 122.58L495.79 121.33L495.49 120.1L495.14 118.9L494.71 117.73L494.23 116.58L493.69 115.47L493.09 114.38L492.45 113.33L491.76 112.33L491.01 111.35L490.21 110.41L489.38 109.53L488.49 108.69L487.57 107.89L486.6 107.13L485.61 106.44L484.56 105.78L483.49 105.18L482.38 104.64L481.23 104.15L480.07 103.73L478.86 103.36L477.64 103.06L476.39 102.82L475.11 102.64L473.83 102.53L472.51 102.5L471.21 102.53L469.91 102.64ZM505.81 90.58L504.56 90.97L503.38 91.52L502.27 92.19L501.25 92.98L500.34 93.89L499.54 94.91L498.85 96.01L498.3 97.2L497.9 98.45L497.65 99.78L497.56 101.15L497.65 102.53L497.9 103.85L498.3 105.11L498.85 106.3L499.54 107.4L500.34 108.41L501.25 109.31L502.27 110.1L503.38 110.78L504.56 111.32L505.81 111.72L507.1 111.97L508.45 112.05L509.84 111.97L511.16 111.72L512.43 111.32L513.63 110.78L514.75 110.1L515.77 109.31L516.7 108.41L517.51 107.4L518.2 106.3L518.74 105.11L519.15 103.85L519.41 102.53L519.5 101.15L519.41 99.78L519.15 98.45L518.74 97.2L518.2 96.01L517.51 94.91L516.7 93.89L515.77 92.98L514.75 92.19L513.63 91.52L512.43 90.97L511.16 90.58L509.84 90.34L508.45 90.25L507.1 90.34L505.81 90.58ZM543.01 50.55L541.74 50.73L540.49 50.97L539.26 51.27L538.07 51.63L536.89 52.06L535.76 52.55L534.65 53.09L533.57 53.69L532.53 54.34L531.52 55.03L530.55 55.79L529.63 56.59L528.75 57.43L527.9 58.33L527.12 59.26L526.37 60.24L525.67 61.24L525.02 62.29L524.44 63.37L523.91 64.49L523.42 65.64L523 66.81L522.64 68.02L522.33 69.24L522.1 70.49L521.92 71.77L521.82 73.05L521.78 74.37L521.82 75.67L521.92 76.97L522.1 78.23L522.33 79.49L522.64 80.71L523 81.91L523.42 83.08L523.91 84.22L524.44 85.33L525.02 86.41L525.67 87.45L526.37 88.46L527.12 89.42L527.9 90.34L528.75 91.22L529.63 92.06L530.55 92.85L531.52 93.6L532.53 94.3L533.57 94.95L534.65 95.53L535.76 96.07L536.89 96.55L538.07 96.98L539.26 97.34L540.49 97.64L541.74 97.88L543.01 98.05L544.3 98.15L545.6 98.18L546.92 98.15L548.2 98.05L549.48 97.88L550.72 97.64L551.95 97.34L553.16 96.98L554.32 96.55L555.47 96.07L556.57 95.53L557.65 94.95L558.69 94.3L559.69 93.6L560.66 92.85L561.58 92.06L562.46 91.22L563.3 90.34L564.1 89.42L564.85 88.46L565.54 87.45L566.18 86.41L566.78 85.33L567.32 84.22L567.8 83.08L568.22 81.91L568.58 80.71L568.88 79.49L569.12 78.23L569.29 76.97L569.4 75.67L569.43 74.37L569.4 73.05L569.29 71.77L569.12 70.49L568.88 69.24L568.58 68.02L568.22 66.81L567.8 65.64L567.32 64.49L566.78 63.37L566.18 62.29L565.54 61.24L564.85 60.24L564.1 59.26L563.3 58.33L562.46 57.43L561.58 56.59L560.66 55.79L559.69 55.03L558.69 54.34L557.65 53.69L556.57 53.09L555.47 52.55L554.32 52.06L553.16 51.63L551.95 51.27L550.72 50.97L549.48 50.73L548.2 50.55L546.92 50.45L545.6 50.41L544.3 50.45L543.01 50.55ZM482.57 38.83L481.3 39.01L480.05 39.24L478.83 39.55L477.63 39.91L476.46 40.33L475.31 40.81L474.21 41.35L473.13 41.94L472.08 42.59L471.08 43.28L470.12 44.03L469.2 44.83L468.32 45.67L467.48 46.54L466.68 47.47L465.94 48.44L465.24 49.44L464.59 50.49L464 51.56L463.46 52.67L462.99 53.82L462.56 54.97L462.2 56.17L461.9 57.39L461.66 58.65L461.49 59.92L461.38 61.21L461.35 62.52L461.38 63.83L461.49 65.13L461.66 66.39L461.9 67.64L462.2 68.87L462.56 70.07L462.99 71.24L463.46 72.38L464 73.48L464.59 74.56L465.24 75.6L465.94 76.6L466.68 77.57L467.48 78.49L468.32 79.38L469.2 80.22L470.12 81.01L471.08 81.76L472.08 82.46L473.13 83.1L474.21 83.69L475.31 84.23L476.46 84.71L477.63 85.14L478.83 85.5L480.05 85.8L481.3 86.04L482.57 86.21L483.86 86.32L485.18 86.35L486.49 86.32L487.78 86.21L489.05 86.04L490.29 85.8L491.53 85.5L492.72 85.14L493.9 84.71L495.05 84.23L496.16 83.69L497.25 83.1L498.29 82.46L499.3 81.76L500.28 81.01L501.21 80.22L502.1 79.38L502.95 78.49L503.75 77.57L504.5 76.6L505.2 75.6L505.86 74.56L506.45 73.48L506.98 72.38L507.47 71.24L507.9 70.07L508.27 68.87L508.57 67.64L508.81 66.39L508.99 65.13L509.09 63.83L509.13 62.52L509.09 61.21L508.99 59.92L508.81 58.65L508.57 57.39L508.27 56.17L507.9 54.97L507.47 53.82L506.98 52.67L506.45 51.56L505.86 50.49L505.2 49.44L504.5 48.44L503.75 47.47L502.95 46.54L502.1 45.67L501.21 44.83L500.28 44.03L499.3 43.28L498.29 42.59L497.25 41.94L496.16 41.35L495.05 40.81L493.9 40.33L492.72 39.91L491.53 39.55L490.29 39.24L489.05 39.01L487.78 38.83L486.49 38.73L485.18 38.69L483.86 38.73L482.57 38.83Z" id="cqir0UPaW"></path><path d="M601.19 85.95C595.41 61.71 589.49 46.77 568.35 28.87C583.02 30.76 594.87 33.32 602.55 45.03C610.22 56.87 606.58 71.68 601.19 85.95Z" id="g40O6u8ZFz"></path><path d="M601.19 85.95C595.41 61.71 589.49 46.77 568.35 28.87C583.02 30.76 594.87 33.32 602.55 45.03C610.22 56.87 606.58 71.68 601.19 85.95Z" id="c5RkEvEjZZ"></path><path d="M601.19 85.95C595.41 61.71 589.49 46.77 568.35 28.87C583.02 30.76 594.87 33.32 602.55 45.03C610.22 56.87 606.58 71.68 601.19 85.95Z" id="b1ezxjtD1h"></path><path d="M601.19 85.95C595.41 61.71 589.49 46.77 568.35 28.87C583.02 30.76 594.87 33.32 602.55 45.03C610.22 56.87 606.58 71.68 601.19 85.95Z" id="bNuHljMT4"></path><path d="M582.49 156.47C565.79 174.91 553.42 185.27 526.22 190.8C539.96 196.18 551.66 199.69 564.05 192.95C576.44 186.35 580.33 171.54 582.49 156.47Z" id="l7zyjLficF"></path><path d="M582.49 156.47C565.79 174.91 553.42 185.27 526.22 190.8C539.96 196.18 551.66 199.69 564.05 192.95C576.44 186.35 580.33 171.54 582.49 156.47Z" id="a1Onm7JVmA"></path><path d="M582.49 156.47C565.79 174.91 553.42 185.27 526.22 190.8C539.96 196.18 551.66 199.69 564.05 192.95C576.44 186.35 580.33 171.54 582.49 156.47Z" id="c4eNrULcYh"></path><path d="M582.49 156.47C565.79 174.91 553.42 185.27 526.22 190.8C539.96 196.18 551.66 199.69 564.05 192.95C576.44 186.35 580.33 171.54 582.49 156.47Z" id="gkLuJT1kO"></path><path d="M416.92 116.49C423.66 140.32 430.26 155.13 452.05 172.08C437.38 170.87 425.41 168.85 417.19 157.41C409.12 145.98 412.09 130.89 416.92 116.49Z" id="a17HjlvCsa"></path><path d="M416.92 116.49C423.66 140.32 430.26 155.13 452.05 172.08C437.38 170.87 425.41 168.85 417.19 157.41C409.12 145.98 412.09 130.89 416.92 116.49Z" id="e1Zy0yxqU2"></path><path d="M416.92 116.49C423.66 140.32 430.26 155.13 452.05 172.08C437.38 170.87 425.41 168.85 417.19 157.41C409.12 145.98 412.09 130.89 416.92 116.49Z" id="j15T8Oh2lj"></path><path d="M416.92 116.49C423.66 140.32 430.26 155.13 452.05 172.08C437.38 170.87 425.41 168.85 417.19 157.41C409.12 145.98 412.09 130.89 416.92 116.49Z" id="b1grSxM9Dr"></path><path d="M436.58 41.66C454.08 23.89 466.87 13.93 494.19 9.49C480.74 3.56 469.16 -0.34 456.5 5.85C443.85 12.05 439.41 26.58 436.58 41.66Z" id="a1BL3jVc55"></path><path d="M436.58 41.66C454.08 23.89 466.87 13.93 494.19 9.49C480.74 3.56 469.16 -0.34 456.5 5.85C443.85 12.05 439.41 26.58 436.58 41.66Z" id="cqA6GIIiP"></path><path d="M436.58 41.66C454.08 23.89 466.87 13.93 494.19 9.49C480.74 3.56 469.16 -0.34 456.5 5.85C443.85 12.05 439.41 26.58 436.58 41.66Z" id="a48YhgmnTF"></path><path d="M436.58 41.66C454.08 23.89 466.87 13.93 494.19 9.49C480.74 3.56 469.16 -0.34 456.5 5.85C443.85 12.05 439.41 26.58 436.58 41.66Z" id="a1kSI0Nts6"></path><path d="M330.65 54.57C332 48.79 332.4 37.07 343.03 35.34C346.94 34.66 359.18 35.2 369.28 35.07C370.49 33.81 376.55 27.47 387.46 16.09C366 15.91 351.02 15.78 342.49 15.69C331.59 15.55 312.47 27.12 311.94 43.54C313.81 44.65 328.78 53.48 330.65 54.57Z" id="a4v2KedRm"></path><path d="M330.65 54.57C332 48.79 332.4 37.07 343.03 35.34C346.94 34.66 359.18 35.2 369.28 35.07C370.49 33.81 376.55 27.47 387.46 16.09C366 15.91 351.02 15.78 342.49 15.69C331.59 15.55 312.47 27.12 311.94 43.54C313.81 44.65 328.78 53.48 330.65 54.57Z" id="c7gznCGK2b"></path><path d="M330.65 54.57C332 48.79 332.4 37.07 343.03 35.34C346.94 34.66 359.18 35.2 369.28 35.07C370.49 33.81 376.55 27.47 387.46 16.09C366 15.91 351.02 15.78 342.49 15.69C331.59 15.55 312.47 27.12 311.94 43.54C313.81 44.65 328.78 53.48 330.65 54.57Z" id="b1XgLgk2f"></path><path d="M330.65 54.57C332 48.79 332.4 37.07 343.03 35.34C346.94 34.66 359.18 35.2 369.28 35.07C370.49 33.81 376.55 27.47 387.46 16.09C366 15.91 351.02 15.78 342.49 15.69C331.59 15.55 312.47 27.12 311.94 43.54C313.81 44.65 328.78 53.48 330.65 54.57Z" id="bpsflwbs7"></path><path d="M361.87 140.59L361.87 41.93L339.54 62.25L339.54 140.59L361.87 140.59Z" id="dkaDBlH79"></path><path d="M361.87 140.59L361.87 41.93L339.54 62.25L339.54 140.59L361.87 140.59Z" id="i6cU2tYA55"></path><path d="M361.87 140.59L361.87 41.93L339.54 62.25L339.54 140.59L361.87 140.59Z" id="g12kOvlYAf"></path><path d="M361.87 140.59L361.87 41.93L339.54 62.25L339.54 140.59L361.87 140.59Z" id="e13gkR0Q6x"></path><path d="M300.24 120C299.21 120 294.09 120 284.89 120C284.89 121.99 284.89 137.93 284.89 139.92C296.76 139.92 303.36 139.92 304.67 139.92C313.55 139.92 320.43 136.82 325.4 130.89C329.7 125.65 331.19 119.19 331.05 111.24C331.04 108.73 331 96.11 330.92 73.42C329.58 74.65 322.89 80.8 310.86 91.86C310.86 100.32 310.86 104.85 310.86 105.46C310.86 115.15 307.36 120 300.24 120Z" id="dssN7QbnR"></path><path d="M300.24 120C299.21 120 294.09 120 284.89 120C284.89 121.99 284.89 137.93 284.89 139.92C296.76 139.92 303.36 139.92 304.67 139.92C313.55 139.92 320.43 136.82 325.4 130.89C329.7 125.65 331.19 119.19 331.05 111.24C331.04 108.73 331 96.11 330.92 73.42C329.58 74.65 322.89 80.8 310.86 91.86C310.86 100.32 310.86 104.85 310.86 105.46C310.86 115.15 307.36 120 300.24 120Z" id="aAQujFj13"></path><path d="M300.24 120C299.21 120 294.09 120 284.89 120C284.89 121.99 284.89 137.93 284.89 139.92C296.76 139.92 303.36 139.92 304.67 139.92C313.55 139.92 320.43 136.82 325.4 130.89C329.7 125.65 331.19 119.19 331.05 111.24C331.04 108.73 331 96.11 330.92 73.42C329.58 74.65 322.89 80.8 310.86 91.86C310.86 100.32 310.86 104.85 310.86 105.46C310.86 115.15 307.36 120 300.24 120Z" id="c4WZuP1nMD"></path><path d="M300.24 120C299.21 120 294.09 120 284.89 120C284.89 121.99 284.89 137.93 284.89 139.92C296.76 139.92 303.36 139.92 304.67 139.92C313.55 139.92 320.43 136.82 325.4 130.89C329.7 125.65 331.19 119.19 331.05 111.24C331.04 108.73 331 96.11 330.92 73.42C329.58 74.65 322.89 80.8 310.86 91.86C310.86 100.32 310.86 104.85 310.86 105.46C310.86 115.15 307.36 120 300.24 120Z" id="a5PJTqdco5"></path><path d="M266.04 104.52C266.04 66.88 266.04 45.97 266.04 41.79C253.44 53.83 246.45 60.51 245.05 61.85C245.05 93.99 245.05 111.85 245.05 115.42C245.05 131.7 253.52 139.92 270.35 139.92C271.65 139.92 278.21 139.92 290 139.92C290 138.59 290 131.95 290 120C289.6 120 287.58 120 283.94 120L266.04 120L266.04 104.52Z" id="a18WkRMt16"></path><path d="M266.04 104.52C266.04 66.88 266.04 45.97 266.04 41.79C253.44 53.83 246.45 60.51 245.05 61.85C245.05 93.99 245.05 111.85 245.05 115.42C245.05 131.7 253.52 139.92 270.35 139.92C271.65 139.92 278.21 139.92 290 139.92C290 138.59 290 131.95 290 120C289.6 120 287.58 120 283.94 120L266.04 120L266.04 104.52Z" id="d8kIOpVtn"></path><path d="M266.04 104.52C266.04 66.88 266.04 45.97 266.04 41.79C253.44 53.83 246.45 60.51 245.05 61.85C245.05 93.99 245.05 111.85 245.05 115.42C245.05 131.7 253.52 139.92 270.35 139.92C271.65 139.92 278.21 139.92 290 139.92C290 138.59 290 131.95 290 120C289.6 120 287.58 120 283.94 120L266.04 120L266.04 104.52Z" id="bZBjm1Y4A"></path><path d="M266.04 104.52C266.04 66.88 266.04 45.97 266.04 41.79C253.44 53.83 246.45 60.51 245.05 61.85C245.05 93.99 245.05 111.85 245.05 115.42C245.05 131.7 253.52 139.92 270.35 139.92C271.65 139.92 278.21 139.92 290 139.92C290 138.59 290 131.95 290 120C289.6 120 287.58 120 283.94 120L266.04 120L266.04 104.52Z" id="abmlMo3kL"></path><path d="M196.04 149.34C197.31 151.26 207.44 166.66 208.7 168.58C227.42 166.7 235.89 148.8 235.89 127.66C235.89 123.7 235.89 103.82 235.89 68.04C234.45 69.42 227.28 76.33 214.35 88.78C214.27 114.23 214.22 127.87 214.21 129.69C214.21 145.3 204.79 146.64 196.04 149.34Z" id="dgTdGNa8e"></path><path d="M196.04 149.34C197.31 151.26 207.44 166.66 208.7 168.58C227.42 166.7 235.89 148.8 235.89 127.66C235.89 123.7 235.89 103.82 235.89 68.04C234.45 69.42 227.28 76.33 214.35 88.78C214.27 114.23 214.22 127.87 214.21 129.69C214.21 145.3 204.79 146.64 196.04 149.34Z" id="c5PW1FJvU0"></path><path d="M196.04 149.34C197.31 151.26 207.44 166.66 208.7 168.58C227.42 166.7 235.89 148.8 235.89 127.66C235.89 123.7 235.89 103.82 235.89 68.04C234.45 69.42 227.28 76.33 214.35 88.78C214.27 114.23 214.22 127.87 214.21 129.69C214.21 145.3 204.79 146.64 196.04 149.34Z" id="au1K6AbZ2"></path><path d="M196.04 149.34C197.31 151.26 207.44 166.66 208.7 168.58C227.42 166.7 235.89 148.8 235.89 127.66C235.89 123.7 235.89 103.82 235.89 68.04C234.45 69.42 227.28 76.33 214.35 88.78C214.27 114.23 214.22 127.87 214.21 129.69C214.21 145.3 204.79 146.64 196.04 149.34Z" id="b3DsJbIObf"></path><path d="M129.82 119.46C127.13 120.4 117.98 119.86 110.44 119.86C104.72 119.92 58.96 120.35 53.24 120.4C43.68 120.54 26.19 121.74 26.32 104.79C26.32 103.78 26.32 98.7 26.32 89.58C24.35 91.04 8.63 102.79 6.67 104.25C6.75 112.88 6.8 117.69 6.81 118.65C6.94 136.14 27.92 139.92 43.68 139.78C52.28 139.74 121.08 139.42 129.69 139.38C148.94 139.24 161.04 127.4 160.92 113.8C160.92 110.91 160.92 96.47 160.92 70.47C159.49 71.7 152.36 77.84 139.51 88.91C139.6 99.03 139.64 104.47 139.65 105.19C139.65 113.53 136.15 117.17 129.82 119.46Z" id="cy1fibjJw"></path><path d="M129.82 119.46C127.13 120.4 117.98 119.86 110.44 119.86C104.72 119.92 58.96 120.35 53.24 120.4C43.68 120.54 26.19 121.74 26.32 104.79C26.32 103.78 26.32 98.7 26.32 89.58C24.35 91.04 8.63 102.79 6.67 104.25C6.75 112.88 6.8 117.69 6.81 118.65C6.94 136.14 27.92 139.92 43.68 139.78C52.28 139.74 121.08 139.42 129.69 139.38C148.94 139.24 161.04 127.4 160.92 113.8C160.92 110.91 160.92 96.47 160.92 70.47C159.49 71.7 152.36 77.84 139.51 88.91C139.6 99.03 139.64 104.47 139.65 105.19C139.65 113.53 136.15 117.17 129.82 119.46Z" id="a3Gqkke0cj"></path><path d="M129.82 119.46C127.13 120.4 117.98 119.86 110.44 119.86C104.72 119.92 58.96 120.35 53.24 120.4C43.68 120.54 26.19 121.74 26.32 104.79C26.32 103.78 26.32 98.7 26.32 89.58C24.35 91.04 8.63 102.79 6.67 104.25C6.75 112.88 6.8 117.69 6.81 118.65C6.94 136.14 27.92 139.92 43.68 139.78C52.28 139.74 121.08 139.42 129.69 139.38C148.94 139.24 161.04 127.4 160.92 113.8C160.92 110.91 160.92 96.47 160.92 70.47C159.49 71.7 152.36 77.84 139.51 88.91C139.6 99.03 139.64 104.47 139.65 105.19C139.65 113.53 136.15 117.17 129.82 119.46Z" id="c4AXFS9U"></path><path d="M129.82 119.46C127.13 120.4 117.98 119.86 110.44 119.86C104.72 119.92 58.96 120.35 53.24 120.4C43.68 120.54 26.19 121.74 26.32 104.79C26.32 103.78 26.32 98.7 26.32 89.58C24.35 91.04 8.63 102.79 6.67 104.25C6.75 112.88 6.8 117.69 6.81 118.65C6.94 136.14 27.92 139.92 43.68 139.78C52.28 139.74 121.08 139.42 129.69 139.38C148.94 139.24 161.04 127.4 160.92 113.8C160.92 110.91 160.92 96.47 160.92 70.47C159.49 71.7 152.36 77.84 139.51 88.91C139.6 99.03 139.64 104.47 139.65 105.19C139.65 113.53 136.15 117.17 129.82 119.46Z" id="bHcGCxj3d"></path><path d="M94.69 88.37L77.19 68.45L27.13 68.45L27.13 88.1L94.69 88.37Z" id="b1HZ4fU9W3"></path><path d="M94.69 88.37L77.19 68.45L27.13 68.45L27.13 88.1L94.69 88.37Z" id="acU7b41f"></path><path d="M94.69 88.37L77.19 68.45L27.13 68.45L27.13 88.1L94.69 88.37Z" id="b5FOZzOCOt"></path><path d="M94.69 88.37L77.19 68.45L27.13 68.45L27.13 88.1L94.69 88.37Z" id="b2lw2mXMuk"></path><path d="M296.19 166.97C298.34 167.1 302.52 168.18 304.4 169.53C304.74 169.79 306.44 171.08 309.51 173.44C319.29 164.15 324.71 158.99 325.8 157.96C318.8 152.03 315.44 149.07 305.07 148.66C297.6 148.66 278.88 148.66 248.94 148.66C260.33 159.73 266.66 165.87 267.92 167.1C279.23 167.1 284.89 166.97 296.19 166.97Z" id="a159Km26V"></path><path d="M296.19 166.97C298.34 167.1 302.52 168.18 304.4 169.53C304.74 169.79 306.44 171.08 309.51 173.44C319.29 164.15 324.71 158.99 325.8 157.96C318.8 152.03 315.44 149.07 305.07 148.66C297.6 148.66 278.88 148.66 248.94 148.66C260.33 159.73 266.66 165.87 267.92 167.1C279.23 167.1 284.89 166.97 296.19 166.97Z" id="fluZrSgOo"></path><path d="M296.19 166.97C298.34 167.1 302.52 168.18 304.4 169.53C304.74 169.79 306.44 171.08 309.51 173.44C319.29 164.15 324.71 158.99 325.8 157.96C318.8 152.03 315.44 149.07 305.07 148.66C297.6 148.66 278.88 148.66 248.94 148.66C260.33 159.73 266.66 165.87 267.92 167.1C279.23 167.1 284.89 166.97 296.19 166.97Z" id="azvrndNo"></path><path d="M296.19 166.97C298.34 167.1 302.52 168.18 304.4 169.53C304.74 169.79 306.44 171.08 309.51 173.44C319.29 164.15 324.71 158.99 325.8 157.96C318.8 152.03 315.44 149.07 305.07 148.66C297.6 148.66 278.88 148.66 248.94 148.66C260.33 159.73 266.66 165.87 267.92 167.1C279.23 167.1 284.89 166.97 296.19 166.97Z" id="a29tUzSdfm"></path><path d="M192.29 140.59L192.29 41.93L169.93 62.25L169.93 140.59L192.29 140.59Z" id="f8dBRHNmO"></path><path d="M192.29 140.59L192.29 41.93L169.93 62.25L169.93 140.59L192.29 140.59Z" id="c5k6WlYwhp"></path><path d="M192.29 140.59L192.29 41.93L169.93 62.25L169.93 140.59L192.29 140.59Z" id="a6vtH70MJ2"></path><path d="M192.29 140.59L192.29 41.93L169.93 62.25L169.93 140.59L192.29 140.59Z" id="a1vkHze4BV"></path><path d="M286.76 173.17C296.55 172.17 302.84 173.17 305.61 176.13C305.09 176.66 302.5 179.36 297.8 184.2C296.7 183.09 287.87 174.27 286.76 173.17Z" id="fXTDzaxKZ"></path><path d="M286.76 173.17C296.55 172.17 302.84 173.17 305.61 176.13C305.09 176.66 302.5 179.36 297.8 184.2C296.7 183.09 287.87 174.27 286.76 173.17Z" id="bywZHeTTH"></path><path d="M286.76 173.17C296.55 172.17 302.84 173.17 305.61 176.13C305.09 176.66 302.5 179.36 297.8 184.2C296.7 183.09 287.87 174.27 286.76 173.17Z" id="a1uMwwvZYE"></path><path d="M286.76 173.17C296.55 172.17 302.84 173.17 305.61 176.13C305.09 176.66 302.5 179.36 297.8 184.2C296.7 183.09 287.87 174.27 286.76 173.17Z" id="a1DzfiVSMk"></path>
	</defs>
	<g><g><g>
		<use xlink:href="#apqI64bQZ" opacity="1" fill="#000000" fill-opacity="0"></use><g><use xlink:href="#apqI64bQZ" opacity="1" fill-opacity="0" stroke="#000000" stroke-width="1" stroke-opacity="1"></use></g></g><g><use xlink:href="#d2lZUbUQVg" opacity="1" fill="#000000" fill-opacity="0"></use><g><use xlink:href="#d2lZUbUQVg" opacity="1" fill-opacity="0" stroke="#000000" stroke-width="1" stroke-opacity="1"></use></g></g><g><use xlink:href="#asqE132Sg" opacity="1" fill="#000000" fill-opacity="0"></use><g><use xlink:href="#asqE132Sg" opacity="1" fill-opacity="0" stroke="#000000" stroke-width="1" stroke-opacity="1"></use></g></g><g><use xlink:href="#cqir0UPaW" opacity="1" fill="#000000" fill-opacity="0"></use><g><use xlink:href="#cqir0UPaW" opacity="1" fill-opacity="0" stroke="#000000" stroke-width="1" stroke-opacity="1"></use></g></g><g><use xlink:href="#g40O6u8ZFz" opacity="1" fill="#000000" fill-opacity="0"></use><g><use xlink:href="#g40O6u8ZFz" opacity="1" fill-opacity="0" stroke="#000000" stroke-width="1" stroke-opacity="1"></use></g></g><g><use xlink:href="#c5RkEvEjZZ" opacity="1" fill="#000000" fill-opacity="0"></use><g><use xlink:href="#c5RkEvEjZZ" opacity="1" fill-opacity="0" stroke="#000000" stroke-width="1" stroke-opacity="1"></use></g></g><g><use xlink:href="#b1ezxjtD1h" opacity="1" fill="#000000" fill-opacity="0"></use><g><use xlink:href="#b1ezxjtD1h" opacity="1" fill-opacity="0" stroke="#000000" stroke-width="1" stroke-opacity="1"></use></g></g><g><use xlink:href="#bNuHljMT4" opacity="1" fill="#000000" fill-opacity="0"></use><g><use xlink:href="#bNuHljMT4" opacity="1" fill-opacity="0" stroke="#000000" stroke-width="1" stroke-opacity="1"></use></g></g><g><use xlink:href="#l7zyjLficF" opacity="1" fill="#000000" fill-opacity="0"></use><g><use xlink:href="#l7zyjLficF" opacity="1" fill-opacity="0" stroke="#000000" stroke-width="1" stroke-opacity="1"></use></g></g><g><use xlink:href="#a1Onm7JVmA" opacity="1" fill="#000000" fill-opacity="0"></use><g><use xlink:href="#a1Onm7JVmA" opacity="1" fill-opacity="0" stroke="#000000" stroke-width="1" stroke-opacity="1"></use></g></g><g><use xlink:href="#c4eNrULcYh" opacity="1" fill="#000000" fill-opacity="0"></use><g><use xlink:href="#c4eNrULcYh" opacity="1" fill-opacity="0" stroke="#000000" stroke-width="1" stroke-opacity="1"></use></g></g><g><use xlink:href="#gkLuJT1kO" opacity="1" fill="#000000" fill-opacity="0"></use><g><use xlink:href="#gkLuJT1kO" opacity="1" fill-opacity="0" stroke="#000000" stroke-width="1" stroke-opacity="1"></use></g></g><g><use xlink:href="#a17HjlvCsa" opacity="1" fill="#000000" fill-opacity="0"></use><g><use xlink:href="#a17HjlvCsa" opacity="1" fill-opacity="0" stroke="#000000" stroke-width="1" stroke-opacity="1"></use></g></g><g><use xlink:href="#e1Zy0yxqU2" opacity="1" fill="#000000" fill-opacity="0"></use><g><use xlink:href="#e1Zy0yxqU2" opacity="1" fill-opacity="0" stroke="#000000" stroke-width="1" stroke-opacity="1"></use></g></g><g><use xlink:href="#j15T8Oh2lj" opacity="1" fill="#000000" fill-opacity="0"></use><g><use xlink:href="#j15T8Oh2lj" opacity="1" fill-opacity="0" stroke="#000000" stroke-width="1" stroke-opacity="1"></use></g></g><g><use xlink:href="#b1grSxM9Dr" opacity="1" fill="#000000" fill-opacity="0"></use><g><use xlink:href="#b1grSxM9Dr" opacity="1" fill-opacity="0" stroke="#000000" stroke-width="1" stroke-opacity="1"></use></g></g><g><use xlink:href="#a1BL3jVc55" opacity="1" fill="#000000" fill-opacity="0"></use><g><use xlink:href="#a1BL3jVc55" opacity="1" fill-opacity="0" stroke="#000000" stroke-width="1" stroke-opacity="1"></use></g></g><g><use xlink:href="#cqA6GIIiP" opacity="1" fill="#000000" fill-opacity="0"></use><g><use xlink:href="#cqA6GIIiP" opacity="1" fill-opacity="0" stroke="#000000" stroke-width="1" stroke-opacity="1"></use></g></g><g><use xlink:href="#a48YhgmnTF" opacity="1" fill="#000000" fill-opacity="0"></use><g><use xlink:href="#a48YhgmnTF" opacity="1" fill-opacity="0" stroke="#000000" stroke-width="1" stroke-opacity="1"></use></g></g><g><use xlink:href="#a1kSI0Nts6" opacity="1" fill="#000000" fill-opacity="0"></use><g><use xlink:href="#a1kSI0Nts6" opacity="1" fill-opacity="0" stroke="#000000" stroke-width="1" stroke-opacity="1"></use></g></g><g><use xlink:href="#a4v2KedRm" opacity="1" fill="#000000" fill-opacity="0"></use><g><use xlink:href="#a4v2KedRm" opacity="1" fill-opacity="0" stroke="#000000" stroke-width="1" stroke-opacity="1"></use></g></g><g><use xlink:href="#c7gznCGK2b" opacity="1" fill="#000000" fill-opacity="0"></use><g><use xlink:href="#c7gznCGK2b" opacity="1" fill-opacity="0" stroke="#000000" stroke-width="1" stroke-opacity="1"></use></g></g><g><use xlink:href="#b1XgLgk2f" opacity="1" fill="#000000" fill-opacity="0"></use><g><use xlink:href="#b1XgLgk2f" opacity="1" fill-opacity="0" stroke="#000000" stroke-width="1" stroke-opacity="1"></use></g></g><g><use xlink:href="#bpsflwbs7" opacity="1" fill="#000000" fill-opacity="0"></use><g><use xlink:href="#bpsflwbs7" opacity="1" fill-opacity="0" stroke="#000000" stroke-width="1" stroke-opacity="1"></use></g></g><g><use xlink:href="#dkaDBlH79" opacity="1" fill="#000000" fill-opacity="0"></use><g><use xlink:href="#dkaDBlH79" opacity="1" fill-opacity="0" stroke="#000000" stroke-width="1" stroke-opacity="1"></use></g></g><g><use xlink:href="#i6cU2tYA55" opacity="1" fill="#000000" fill-opacity="0"></use><g><use xlink:href="#i6cU2tYA55" opacity="1" fill-opacity="0" stroke="#000000" stroke-width="1" stroke-opacity="1"></use></g></g><g><use xlink:href="#g12kOvlYAf" opacity="1" fill="#000000" fill-opacity="0"></use><g><use xlink:href="#g12kOvlYAf" opacity="1" fill-opacity="0" stroke="#000000" stroke-width="1" stroke-opacity="1"></use></g></g><g><use xlink:href="#e13gkR0Q6x" opacity="1" fill="#000000" fill-opacity="0"></use><g><use xlink:href="#e13gkR0Q6x" opacity="1" fill-opacity="0" stroke="#000000" stroke-width="1" stroke-opacity="1"></use></g></g><g><use xlink:href="#dssN7QbnR" opacity="1" fill="#000000" fill-opacity="0"></use><g><use xlink:href="#dssN7QbnR" opacity="1" fill-opacity="0" stroke="#000000" stroke-width="1" stroke-opacity="1"></use></g></g><g><use xlink:href="#aAQujFj13" opacity="1" fill="#000000" fill-opacity="0"></use><g><use xlink:href="#aAQujFj13" opacity="1" fill-opacity="0" stroke="#000000" stroke-width="1" stroke-opacity="1"></use></g></g><g><use xlink:href="#c4WZuP1nMD" opacity="1" fill="#000000" fill-opacity="0"></use><g><use xlink:href="#c4WZuP1nMD" opacity="1" fill-opacity="0" stroke="#000000" stroke-width="1" stroke-opacity="1"></use></g></g><g><use xlink:href="#a5PJTqdco5" opacity="1" fill="#000000" fill-opacity="0"></use><g><use xlink:href="#a5PJTqdco5" opacity="1" fill-opacity="0" stroke="#000000" stroke-width="1" stroke-opacity="1"></use></g></g><g><use xlink:href="#a18WkRMt16" opacity="1" fill="#000000" fill-opacity="0"></use><g><use xlink:href="#a18WkRMt16" opacity="1" fill-opacity="0" stroke="#000000" stroke-width="1" stroke-opacity="1"></use></g></g><g><use xlink:href="#d8kIOpVtn" opacity="1" fill="#000000" fill-opacity="0"></use><g><use xlink:href="#d8kIOpVtn" opacity="1" fill-opacity="0" stroke="#000000" stroke-width="1" stroke-opacity="1"></use></g></g><g><use xlink:href="#bZBjm1Y4A" opacity="1" fill="#000000" fill-opacity="0"></use><g><use xlink:href="#bZBjm1Y4A" opacity="1" fill-opacity="0" stroke="#000000" stroke-width="1" stroke-opacity="1"></use></g></g><g><use xlink:href="#abmlMo3kL" opacity="1" fill="#000000" fill-opacity="0"></use><g><use xlink:href="#abmlMo3kL" opacity="1" fill-opacity="0" stroke="#000000" stroke-width="1" stroke-opacity="1"></use></g></g><g><use xlink:href="#dgTdGNa8e" opacity="1" fill="#000000" fill-opacity="0"></use><g><use xlink:href="#dgTdGNa8e" opacity="1" fill-opacity="0" stroke="#000000" stroke-width="1" stroke-opacity="1"></use></g></g><g><use xlink:href="#c5PW1FJvU0" opacity="1" fill="#000000" fill-opacity="0"></use><g><use xlink:href="#c5PW1FJvU0" opacity="1" fill-opacity="0" stroke="#000000" stroke-width="1" stroke-opacity="1"></use></g></g><g><use xlink:href="#au1K6AbZ2" opacity="1" fill="#000000" fill-opacity="0"></use><g><use xlink:href="#au1K6AbZ2" opacity="1" fill-opacity="0" stroke="#000000" stroke-width="1" stroke-opacity="1"></use></g></g><g><use xlink:href="#b3DsJbIObf" opacity="1" fill="#000000" fill-opacity="0"></use><g><use xlink:href="#b3DsJbIObf" opacity="1" fill-opacity="0" stroke="#000000" stroke-width="1" stroke-opacity="1"></use></g></g><g><use xlink:href="#cy1fibjJw" opacity="1" fill="#000000" fill-opacity="0"></use><g><use xlink:href="#cy1fibjJw" opacity="1" fill-opacity="0" stroke="#000000" stroke-width="1" stroke-opacity="1"></use></g></g><g><use xlink:href="#a3Gqkke0cj" opacity="1" fill="#000000" fill-opacity="0"></use><g><use xlink:href="#a3Gqkke0cj" opacity="1" fill-opacity="0" stroke="#000000" stroke-width="1" stroke-opacity="1"></use></g></g><g><use xlink:href="#c4AXFS9U" opacity="1" fill="#000000" fill-opacity="0"></use><g><use xlink:href="#c4AXFS9U" opacity="1" fill-opacity="0" stroke="#000000" stroke-width="1" stroke-opacity="1"></use></g></g><g><use xlink:href="#bHcGCxj3d" opacity="1" fill="#000000" fill-opacity="0"></use><g><use xlink:href="#bHcGCxj3d" opacity="1" fill-opacity="0" stroke="#000000" stroke-width="1" stroke-opacity="1"></use></g></g><g><use xlink:href="#b1HZ4fU9W3" opacity="1" fill="#000000" fill-opacity="0"></use><g><use xlink:href="#b1HZ4fU9W3" opacity="1" fill-opacity="0" stroke="#000000" stroke-width="1" stroke-opacity="1"></use></g></g><g><use xlink:href="#acU7b41f" opacity="1" fill="#000000" fill-opacity="0"></use><g><use xlink:href="#acU7b41f" opacity="1" fill-opacity="0" stroke="#000000" stroke-width="1" stroke-opacity="1"></use></g></g><g><use xlink:href="#b5FOZzOCOt" opacity="1" fill="#000000" fill-opacity="0"></use><g><use xlink:href="#b5FOZzOCOt" opacity="1" fill-opacity="0" stroke="#000000" stroke-width="1" stroke-opacity="1"></use></g></g><g><use xlink:href="#b2lw2mXMuk" opacity="1" fill="#000000" fill-opacity="0"></use><g><use xlink:href="#b2lw2mXMuk" opacity="1" fill-opacity="0" stroke="#000000" stroke-width="1" stroke-opacity="1"></use></g></g><g><use xlink:href="#a159Km26V" opacity="1" fill="#000000" fill-opacity="0"></use><g><use xlink:href="#a159Km26V" opacity="1" fill-opacity="0" stroke="#000000" stroke-width="1" stroke-opacity="1"></use></g></g><g><use xlink:href="#fluZrSgOo" opacity="1" fill="#000000" fill-opacity="0"></use><g><use xlink:href="#fluZrSgOo" opacity="1" fill-opacity="0" stroke="#000000" stroke-width="1" stroke-opacity="1"></use></g></g><g><use xlink:href="#azvrndNo" opacity="1" fill="#000000" fill-opacity="0"></use><g><use xlink:href="#azvrndNo" opacity="1" fill-opacity="0" stroke="#000000" stroke-width="1" stroke-opacity="1"></use></g></g><g><use xlink:href="#a29tUzSdfm" opacity="1" fill="#000000" fill-opacity="0"></use><g><use xlink:href="#a29tUzSdfm" opacity="1" fill-opacity="0" stroke="#000000" stroke-width="1" stroke-opacity="1"></use></g></g><g><use xlink:href="#f8dBRHNmO" opacity="1" fill="#000000" fill-opacity="0"></use><g><use xlink:href="#f8dBRHNmO" opacity="1" fill-opacity="0" stroke="#000000" stroke-width="1" stroke-opacity="1"></use></g></g><g><use xlink:href="#c5k6WlYwhp" opacity="1" fill="#000000" fill-opacity="0"></use><g><use xlink:href="#c5k6WlYwhp" opacity="1" fill-opacity="0" stroke="#000000" stroke-width="1" stroke-opacity="1"></use></g></g><g><use xlink:href="#a6vtH70MJ2" opacity="1" fill="#000000" fill-opacity="0"></use><g><use xlink:href="#a6vtH70MJ2" opacity="1" fill-opacity="0" stroke="#000000" stroke-width="1" stroke-opacity="1"></use></g></g><g><use xlink:href="#a1vkHze4BV" opacity="1" fill="#000000" fill-opacity="0"></use><g><use xlink:href="#a1vkHze4BV" opacity="1" fill-opacity="0" stroke="#000000" stroke-width="1" stroke-opacity="1"></use></g></g><g><use xlink:href="#fXTDzaxKZ" opacity="1" fill="#000000" fill-opacity="0"></use><g><use xlink:href="#fXTDzaxKZ" opacity="1" fill-opacity="0" stroke="#000000" stroke-width="1" stroke-opacity="1"></use></g></g><g><use xlink:href="#bywZHeTTH" opacity="1" fill="#000000" fill-opacity="0"></use><g><use xlink:href="#bywZHeTTH" opacity="1" fill-opacity="0" stroke="#000000" stroke-width="1" stroke-opacity="1"></use></g></g><g><use xlink:href="#a1uMwwvZYE" opacity="1" fill="#000000" fill-opacity="0"></use><g><use xlink:href="#a1uMwwvZYE" opacity="1" fill-opacity="0" stroke="#000000" stroke-width="1" stroke-opacity="1"></use></g></g><g><use xlink:href="#a1DzfiVSMk" opacity="1" fill="#000000" fill-opacity="0"></use><g><use xlink:href="#a1DzfiVSMk" opacity="1" fill-opacity="0" stroke="#000000" stroke-width="1" stroke-opacity="1"></use></g>
	</g></g></g>
</svg>