<?xml version="1.0" encoding="utf-8"?>
<!-- Generator: Adobe Illustrator 19.0.0, SVG Export Plug-In . SVG Version: 6.00 Build 0)  -->
<svg version="1.0" id="Layer_1" xmlns="http://www.w3.org/2000/svg" xmlns:xlink="http://www.w3.org/1999/xlink" x="0px" y="0px"
	 viewBox="0 0 412.4 113.9" style="enable-background:new 0 0 412.4 113.9;" xml:space="preserve">
<style type="text/css">
	.st0{fill:none;stroke:#000000;stroke-width:0.5;stroke-miterlimit:10;}
</style>
<g id="XMLID_669_">
	<g id="XMLID_682_">
		<path id="XMLID_683_" class="st0" d="M65.8,78.7c11-1.3,22.8-5.3,22.8-24.4c0-5.4-1.9-9.8-5-13.3c0.5-1.3,2.1-6.2-0.6-13.1
			c0,0-4-1.3-13.5,5c-4-1.1-8.4-1.8-12.6-1.8c-4.2,0-8.6,0.7-12.6,1.8c-9.5-6.3-13.6-5-13.6-5c-2.7,6.8-1.1,11.7-0.6,13.1
			c-3.1,3.4-5,7.8-5,13.3c0,19.1,11.7,23.1,22.8,24.4c-1.4,1.2-2.7,3.5-3.2,6.7c-2.8,1.2-10.1,3.5-14.6-4.1c0,0-2.6-4.7-7.5-5
			c0,0-4.9-0.1-0.4,3c0,0,3.3,1.5,5.5,7.2c0,0,3,9.5,16.9,6.5v8.5c0,1.3-1,2.8-3.5,2.4C21.5,97.5,7.4,78.8,7.4,56.9
			C7.4,29.5,29.6,7.3,57,7.3c27.3,0,49.6,22.2,49.5,49.6c0,21.9-14.2,40.5-33.8,47.1c-2.5,0.5-3.5-1-3.5-2.4V87.8
			C69.1,83.2,67.6,80.2,65.8,78.7L65.8,78.7z M113.6,57c0-31.3-25.4-56.7-56.6-56.7C25.7,0.3,0.3,25.7,0.3,57
			c0,31.2,25.4,56.6,56.7,56.6C88.2,113.6,113.6,88.2,113.6,57L113.6,57z"/>
	</g>
	<g id="XMLID_670_">
		<path id="XMLID_679_" class="st0" d="M162.2,80.3c0-5,0-9.9,0-14.9c-0.3,0-0.5,0-0.8,0c-2.8,0-5.6,0-8.4,0c-1.1,0-1.4-0.4-1.4-1.4
			c0-3.8,0-7.6,0-11.3c0-1.1,0.4-1.5,1.4-1.5c7.9,0,15.9,0,23.8,0c1.1,0,1.5,0.4,1.5,1.5c0,12.2,0,24.5,0,36.7
			c0,0.7-0.3,1.1-0.9,1.5c-4,2.4-8.4,3.9-13,4.7c-7.7,1.3-15.3,1-22.8-1.3c-8.5-2.6-14.2-8.3-17.4-16.5c-1.7-4.3-2.5-8.8-2.9-13.4
			c-0.4-5.1-0.4-10.2,0.2-15.3c0.6-5.5,1.8-10.9,4.2-15.9c4.1-8.3,10.9-13.1,19.9-14.8c4.9-0.9,9.8-0.9,14.7-0.5
			c3.8,0.3,7.5,0.8,11.1,2c1.1,0.4,2.1,0.9,3.2,1.4c0.6,0.3,0.8,0.8,0.6,1.4c-0.9,3.8-1.8,7.5-2.7,11.3c-0.2,0.8-0.8,1.2-1.6,0.9
			c-5.3-1.9-10.9-2.3-16.4-2c-4.6,0.2-8.8,1.5-11.9,5.1c-2.2,2.5-3.4,5.5-4.1,8.7c-1,4.4-1.2,8.8-1,13.2c0.2,3.7,0.6,7.4,1.9,10.9
			c1.3,3.7,3.4,6.8,6.9,8.6c1.8,1,3.8,1.4,5.8,1.6c3.1,0.2,6.3,0.1,9.4-0.5C161.7,80.5,162,80.4,162.2,80.3z"/>
		<path id="XMLID_678_" class="st0" d="M287.2,62.8c-7.2,0-14.3,0-21.5,0c0,0.3,0,0.7,0,1c0,9.7,0,19.4,0,29.2
			c0,1.6-0.3,1.8-1.8,1.8c-4.2,0-8.3,0-12.5,0c-1.5,0-1.8-0.3-1.8-1.8c0-10.9,0-21.8,0-32.7c0-12.7,0-25.4,0-38
			c0-1.6,0.3-1.9,1.9-1.9c4.1,0,8.2,0,12.3,0c1.7,0,1.9,0.2,1.9,1.9c0,8.3,0,16.5,0,24.8c0,0.3,0,0.6,0,1c7.2,0,14.3,0,21.5,0
			c0-0.3,0-0.6,0-0.9c0-8.4,0-16.8,0-25.2c0-1.3,0.3-1.6,1.6-1.6c4.3,0,8.5,0,12.8,0c1.3,0,1.6,0.4,1.6,1.6c0,23.7,0,47.4,0,71.1
			c0,1.3-0.3,1.6-1.6,1.6c-4.3,0-8.6,0-12.9,0c-1.2,0-1.5-0.4-1.5-1.5c0-9.8,0-19.6,0-29.5C287.2,63.5,287.2,63.2,287.2,62.8z"/>
		<path id="XMLID_675_" class="st0" d="M379.9,45.7c1.9-0.7,3.6-1.6,5.5-2.1c4.1-1.3,8.4-1.5,12.6-0.6c5.8,1.2,9.6,4.8,11.8,10.2
			c1.4,3.4,2.1,7.1,2.2,10.7c0.1,3.6,0.1,7.3-0.2,10.9c-0.3,4.2-1.1,8.2-2.8,12.1c-2.3,5-6.2,8.1-11.7,9c-6.2,1-12.2,0.3-17.9-2.7
			c-0.6-0.3-1.1-0.6-1.7-1c-0.5-0.4-1.1-0.7-1.7-1.2c-0.1,0.6-0.2,1.2-0.3,1.7c-0.1,0.4-0.1,0.8-0.2,1.2c-0.2,0.6-0.5,0.9-1.2,0.9
			c-3.2,0-6.3,0-9.5,0c-0.7,0-1.1-0.4-1.2-1.1c0-0.2,0-0.5,0-0.8c0-23.5,0-47.1,0-70.6c0-0.3,0-0.6,0-0.9c0.1-0.7,0.5-1,1.4-1
			c3.3,0,6.6,0,9.9,0c1.1,0,2.2,0,3.2,0c1.1,0,1.5,0.4,1.5,1.5c0,7.7,0,15.4,0,23.1C379.9,45.3,379.9,45.5,379.9,45.7z M379.6,69.4
			c0,3.5,0,7.1,0,10.6c0,0.6,0.2,1,0.8,1.3c2.9,1.5,6,2,9.3,1.8c2.4-0.2,4.3-1.2,5.2-3.5c0.4-0.9,0.6-1.8,0.8-2.7
			c0.7-3.9,0.8-7.9,0.4-11.9c-0.2-1.9-0.6-3.9-1.5-5.6c-1.2-2.3-3.1-3.5-5.7-3.6c-3.1-0.2-5.9,0.6-8.6,1.9c-0.5,0.3-0.7,0.5-0.7,1.1
			C379.6,62.3,379.6,65.8,379.6,69.4z"/>
		<path id="XMLID_674_" class="st0" d="M345.3,91.5c-2.3,1-4.5,2.1-6.8,3c-5.9,2.2-11.9,2.3-17.9,0.7c-5.7-1.5-8.9-5.4-10-11.2
			c-0.4-2-0.5-4-0.5-6c0-10.8,0-21.5,0-32.3c0-1.4,0.3-1.7,1.7-1.7c4.3,0,8.6,0,12.8,0c1.3,0,1.6,0.3,1.6,1.6c0,9.9,0,19.9,0,29.8
			c0,1.1,0.1,2.2,0.2,3.3c0.4,2.7,2,4,4.7,4.2c3.2,0.2,6.2-0.5,8.9-2c0.6-0.3,0.7-0.7,0.7-1.3c0-11.2,0-22.4,0-33.6
			c0-0.3,0-0.5,0-0.8c0-0.9,0.4-1.3,1.4-1.3c2.1,0,4.2,0,6.2,0c2.2,0,4.4,0,6.6,0c1.5,0,1.8,0.3,1.8,1.7c0,14.6,0,29.3,0,43.9
			c0,1.2,0,2.4,0,3.5c0,1.1-0.4,1.5-1.5,1.5c-2.7,0-5.4,0-8,0c-1.2,0-1.4-0.2-1.7-1.4C345.4,92.8,345.4,92.2,345.3,91.5
			C345.2,91.5,345.2,91.5,345.3,91.5z"/>
		<path id="XMLID_673_" class="st0" d="M231.4,44c1.7,0,3.4,0,5,0c1.7,0,3.3,0,5,0c1.1,0,1.5,0.4,1.6,1.5c0,1.6,0,3.1,0,4.7
			c0,1.9,0,3.8,0,5.6c0,1.2-0.4,1.6-1.6,1.6c-3,0-6,0-9,0c-0.3,0-0.5,0-0.9,0c0,0.3-0.1,0.5-0.1,0.6c0,6.5,0,13,0,19.5
			c0,3,1.4,4.7,4.3,5.3c1.3,0.3,2.7,0.2,4,0.2c0.6,0,1.3-0.1,1.9-0.2c0.9-0.1,1.4,0.4,1.4,1.3c0,3.2,0,6.4,0,9.5
			c0,0.6-0.3,1-0.9,1.2c-5.6,1.6-11.3,1.8-16.9,0c-5-1.6-7.9-5.2-9-10.3c-0.4-1.7-0.6-3.5-0.6-5.3c-0.1-7,0-13.9,0-20.9
			c0-0.3,0-0.6,0-1c-0.3,0-0.6,0-0.8,0c-2,0-4.1,0-6.1,0c-1.1,0-1.5-0.4-1.5-1.5c0-2.7,0-5.5,0-8.2c0-1,0.3-1.3,1.3-1.6
			c2.1-0.5,4.3-1.1,6.4-1.5c0.6-0.1,0.7-0.4,0.7-1c0-4.3,0-8.6,0-12.9c0-1,0.2-1.2,1.2-1.2c4.5,0,9,0,13.5,0c1,0,1.2,0.2,1.2,1.2
			c0,4.1,0,8.2,0,12.3C231.4,43.3,231.4,43.6,231.4,44z"/>
		<path id="XMLID_672_" class="st0" d="M202.2,69.2c0,7.7,0,15.4,0,23.1c0,0.2,0,0.5,0,0.7c0,1.4-0.5,1.9-1.9,1.9c-4,0-8,0-12,0
			c-1.6,0-2.1-0.5-2.1-2.1c0-15.7,0-31.4,0-47c0-1.2,0.5-1.6,1.6-1.6c4.2,0,8.5,0,12.7,0c1.4,0,1.7,0.3,1.7,1.7
			C202.2,53.5,202.2,61.4,202.2,69.2z"/>
		<path id="XMLID_671_" class="st0" d="M203.1,31c0,5-4,9-8.8,9c-4.9,0-8.9-4-8.9-9c0-5,3.9-9,8.8-9C199.2,22,203.1,26,203.1,31z"/>
	</g>
</g>
</svg>
