<?xml version="1.0" encoding="utf-8"?>
<!-- Generator: Adobe Illustrator 19.0.0, SVG Export Plug-In . SVG Version: 6.00 Build 0)  -->
<svg version="1.0" id="Layer_1" xmlns="http://www.w3.org/2000/svg" xmlns:xlink="http://www.w3.org/1999/xlink" x="0px" y="0px"
	 viewBox="0 0 411.9 113.4" style="enable-background:new 0 0 411.9 113.4;" xml:space="preserve">
<g id="XMLID_665_">
	<g id="XMLID_706_">
		<path id="XMLID_707_" d="M65.6,78.4c11-1.3,22.8-5.3,22.8-24.4c0-5.4-1.9-9.8-5-13.3c0.5-1.3,2.1-6.2-0.6-13.1c0,0-4-1.3-13.5,5
			c-4-1.1-8.4-1.8-12.6-1.8c-4.2,0-8.6,0.7-12.6,1.8c-9.5-6.3-13.6-5-13.6-5c-2.7,6.8-1.1,11.7-0.6,13.1c-3.1,3.4-5,7.8-5,13.3
			c0,19.1,11.7,23.1,22.8,24.4c-1.4,1.2-2.7,3.5-3.2,6.7C41.8,86.4,34.4,88.7,30,81c0,0-2.6-4.7-7.5-5c0,0-4.9-0.1-0.4,3
			c0,0,3.3,1.5,5.5,7.2c0,0,3,9.5,16.9,6.5v8.5c0,1.3-1,2.8-3.5,2.4C21.3,97.2,7.1,78.5,7.1,56.6C7.1,29.2,29.3,7,56.7,7
			c27.3,0,49.6,22.2,49.5,49.6c0,21.9-14.2,40.5-33.8,47.1c-2.5,0.5-3.5-1-3.5-2.4V87.6C68.9,83,67.4,79.9,65.6,78.4L65.6,78.4z
			 M113.4,56.7C113.4,25.4,88,0,56.7,0C25.4,0,0,25.4,0,56.7c0,31.2,25.4,56.6,56.7,56.6C88,113.4,113.4,88,113.4,56.7L113.4,56.7z"
			/>
	</g>
	<g id="XMLID_664_">
		<path id="XMLID_719_" d="M162,80.1c0-5,0-9.9,0-14.9c-0.3,0-0.5,0-0.8,0c-2.8,0-5.6,0-8.4,0c-1.1,0-1.4-0.4-1.4-1.4
			c0-3.8,0-7.6,0-11.3c0-1.1,0.4-1.5,1.4-1.5c7.9,0,15.9,0,23.8,0c1.1,0,1.5,0.4,1.5,1.5c0,12.2,0,24.5,0,36.7
			c0,0.7-0.3,1.1-0.9,1.5c-4,2.4-8.4,3.9-13,4.7c-7.7,1.3-15.3,1-22.8-1.3c-8.5-2.6-14.2-8.3-17.4-16.5c-1.7-4.3-2.5-8.8-2.9-13.4
			c-0.4-5.1-0.4-10.2,0.2-15.3c0.6-5.5,1.8-10.9,4.2-15.9c4.1-8.3,10.9-13.1,19.9-14.8c4.9-0.9,9.8-0.9,14.7-0.5
			c3.8,0.3,7.5,0.8,11.1,2c1.1,0.4,2.1,0.9,3.2,1.4c0.6,0.3,0.8,0.8,0.6,1.4c-0.9,3.8-1.8,7.5-2.7,11.3c-0.2,0.8-0.8,1.2-1.6,0.9
			c-5.3-1.9-10.9-2.3-16.4-2c-4.6,0.2-8.8,1.5-11.9,5.1c-2.2,2.5-3.4,5.5-4.1,8.7c-1,4.4-1.2,8.8-1,13.2c0.2,3.7,0.6,7.4,1.9,10.9
			c1.3,3.7,3.4,6.8,6.9,8.6c1.8,1,3.8,1.4,5.8,1.6c3.1,0.2,6.3,0.1,9.4-0.5C161.5,80.2,161.7,80.2,162,80.1z"/>
		<path id="XMLID_718_" d="M286.9,62.6c-7.2,0-14.3,0-21.5,0c0,0.3,0,0.7,0,1c0,9.7,0,19.4,0,29.2c0,1.6-0.3,1.8-1.8,1.8
			c-4.2,0-8.3,0-12.5,0c-1.5,0-1.8-0.3-1.8-1.8c0-10.9,0-21.8,0-32.7c0-12.7,0-25.4,0-38c0-1.6,0.3-1.9,1.9-1.9c4.1,0,8.2,0,12.3,0
			c1.7,0,1.9,0.2,1.9,1.9c0,8.3,0,16.5,0,24.8c0,0.3,0,0.6,0,1c7.2,0,14.3,0,21.5,0c0-0.3,0-0.6,0-0.9c0-8.4,0-16.8,0-25.2
			c0-1.3,0.3-1.6,1.6-1.6c4.3,0,8.5,0,12.8,0c1.3,0,1.6,0.4,1.6,1.6c0,23.7,0,47.4,0,71.1c0,1.3-0.3,1.6-1.6,1.6
			c-4.3,0-8.6,0-12.9,0c-1.2,0-1.5-0.4-1.5-1.5c0-9.8,0-19.6,0-29.5C286.9,63.2,286.9,63,286.9,62.6z"/>
		<path id="XMLID_715_" d="M379.7,45.5c1.9-0.7,3.6-1.6,5.5-2.1c4.1-1.3,8.4-1.5,12.6-0.6c5.8,1.2,9.6,4.8,11.8,10.2
			c1.4,3.4,2.1,7.1,2.2,10.7c0.1,3.6,0.1,7.3-0.2,10.9c-0.3,4.2-1.1,8.2-2.8,12.1c-2.3,5-6.2,8.1-11.7,9c-6.2,1-12.2,0.3-17.9-2.7
			c-0.6-0.3-1.1-0.6-1.7-1c-0.5-0.4-1.1-0.7-1.7-1.2c-0.1,0.6-0.2,1.2-0.3,1.7c-0.1,0.4-0.1,0.8-0.2,1.2c-0.2,0.6-0.5,0.9-1.2,0.9
			c-3.2,0-6.3,0-9.5,0c-0.7,0-1.1-0.4-1.2-1.1c0-0.2,0-0.5,0-0.8c0-23.5,0-47.1,0-70.6c0-0.3,0-0.6,0-0.9c0.1-0.7,0.5-1,1.4-1
			c3.3,0,6.6,0,9.9,0c1.1,0,2.2,0,3.2,0c1.1,0,1.5,0.4,1.5,1.5c0,7.7,0,15.4,0,23.1C379.7,45,379.7,45.3,379.7,45.5z M379.4,69.1
			c0,3.5,0,7.1,0,10.6c0,0.6,0.2,1,0.8,1.3c2.9,1.5,6,2,9.3,1.8c2.4-0.2,4.3-1.2,5.2-3.5c0.4-0.9,0.6-1.8,0.8-2.7
			c0.7-3.9,0.8-7.9,0.4-11.9c-0.2-1.9-0.6-3.9-1.5-5.6c-1.2-2.3-3.1-3.5-5.7-3.6c-3.1-0.2-5.9,0.6-8.6,1.9c-0.5,0.3-0.7,0.5-0.7,1.1
			C379.4,62,379.4,65.6,379.4,69.1z"/>
		<path id="XMLID_714_" d="M345,91.3c-2.3,1-4.5,2.1-6.8,3c-5.9,2.2-11.9,2.3-17.9,0.7c-5.7-1.5-8.9-5.4-10-11.2c-0.4-2-0.5-4-0.5-6
			c0-10.8,0-21.5,0-32.3c0-1.4,0.3-1.7,1.7-1.7c4.3,0,8.6,0,12.8,0c1.3,0,1.6,0.3,1.6,1.6c0,9.9,0,19.9,0,29.8
			c0,1.1,0.1,2.2,0.2,3.3c0.4,2.7,2,4,4.7,4.2c3.2,0.2,6.2-0.5,8.9-2c0.6-0.3,0.7-0.7,0.7-1.3c0-11.2,0-22.4,0-33.6
			c0-0.3,0-0.5,0-0.8c0-0.9,0.4-1.3,1.4-1.3c2.1,0,4.2,0,6.2,0c2.2,0,4.4,0,6.6,0c1.5,0,1.8,0.3,1.8,1.7c0,14.6,0,29.3,0,43.9
			c0,1.2,0,2.4,0,3.5c0,1.1-0.4,1.5-1.5,1.5c-2.7,0-5.4,0-8,0c-1.2,0-1.4-0.2-1.7-1.4C345.2,92.6,345.1,91.9,345,91.3
			C345,91.2,344.9,91.2,345,91.3z"/>
		<path id="XMLID_713_" d="M231.2,43.7c1.7,0,3.4,0,5,0c1.7,0,3.3,0,5,0c1.1,0,1.5,0.4,1.6,1.5c0,1.6,0,3.1,0,4.7c0,1.9,0,3.8,0,5.6
			c0,1.2-0.4,1.6-1.6,1.6c-3,0-6,0-9,0c-0.3,0-0.5,0-0.9,0c0,0.3-0.1,0.5-0.1,0.6c0,6.5,0,13,0,19.5c0,3,1.4,4.7,4.3,5.3
			c1.3,0.3,2.7,0.2,4,0.2c0.6,0,1.3-0.1,1.9-0.2c0.9-0.1,1.4,0.4,1.4,1.3c0,3.2,0,6.4,0,9.5c0,0.6-0.3,1-0.9,1.2
			c-5.6,1.6-11.3,1.8-16.9,0c-5-1.6-7.9-5.2-9-10.3c-0.4-1.7-0.6-3.5-0.6-5.3c-0.1-7,0-13.9,0-20.9c0-0.3,0-0.6,0-1
			c-0.3,0-0.6,0-0.8,0c-2,0-4.1,0-6.1,0c-1.1,0-1.5-0.4-1.5-1.5c0-2.7,0-5.5,0-8.2c0-1,0.3-1.3,1.3-1.6c2.1-0.5,4.3-1.1,6.4-1.5
			c0.6-0.1,0.7-0.4,0.7-1c0-4.3,0-8.6,0-12.9c0-1,0.2-1.2,1.2-1.2c4.5,0,9,0,13.5,0c1,0,1.2,0.2,1.2,1.2c0,4.1,0,8.2,0,12.3
			C231.2,43.1,231.2,43.3,231.2,43.7z"/>
		<path id="XMLID_712_" d="M202,68.9c0,7.7,0,15.4,0,23.1c0,0.2,0,0.5,0,0.7c0,1.4-0.5,1.9-1.9,1.9c-4,0-8,0-12,0
			c-1.6,0-2.1-0.5-2.1-2.1c0-15.7,0-31.4,0-47c0-1.2,0.5-1.6,1.6-1.6c4.2,0,8.5,0,12.7,0c1.4,0,1.7,0.3,1.7,1.7
			C202,53.3,202,61.1,202,68.9z"/>
		<path id="XMLID_710_" d="M202.9,30.8c0,5-4,9-8.8,9c-4.9,0-8.9-4-8.9-9c0-5,3.9-9,8.8-9C198.9,21.8,202.9,25.8,202.9,30.8z"/>
	</g>
</g>
</svg>
