<?xml version="1.0" encoding="utf-8"?>
<!-- Generator: Adobe Illustrator 19.0.0, SVG Export Plug-In . SVG Version: 6.00 Build 0)  -->
<svg version="1.0" id="Layer_1" xmlns="http://www.w3.org/2000/svg" xmlns:xlink="http://www.w3.org/1999/xlink" x="0px" y="0px"
	 viewBox="0 0 452.5 113.9" style="enable-background:new 0 0 452.5 113.9;" xml:space="preserve">
<style type="text/css">
	.st0{fill:none;stroke:#000000;stroke-width:0.5;stroke-miterlimit:10;}
	.st1{fill:none;stroke:#000000;stroke-width:0.25;stroke-miterlimit:10;}
</style>
<g id="XMLID_668_">
	<path id="XMLID_2434_" class="st0" d="M155.3,69.8c0,1-0.2,2-0.5,3.2c-0.4,1.2-1,2.3-2,3.4c-1,1.1-2.4,2.1-4.4,2.9
		c-2,0.8-4.4,1.2-7.3,1.2c-2.6,0-4.6-0.3-6.1-0.8c-1.5-0.5-2.8-1.3-3.8-2.2c-1.1-1-2-2.1-2.7-3.3c-0.7-1.2-1-2.3-1-3.3
		c0-0.6,0.2-1,0.6-1.4c0.4-0.4,0.9-0.5,1.4-0.5c0.6,0,1,0.2,1.2,0.5c0.3,0.4,0.6,0.9,0.9,1.7c1.7,4,4.9,5.9,9.8,5.9
		c3.1,0,5.5-0.7,7.1-2c1.7-1.3,2.5-2.9,2.5-4.7c0-1.9-0.7-3.3-2.1-4.1c-1.4-0.9-3-1.5-4.9-2c-1.4-0.4-2.8-0.8-4.2-1.1
		c-1.2-0.3-2.5-0.7-3.7-1c-1.1-0.3-2-0.6-2.7-1c-0.8-0.3-1.4-0.7-2-1.1c-1-0.7-1.7-1.6-2.3-2.7c-0.6-1.1-0.9-2.3-0.9-3.7
		c0-2.1,0.9-4.3,2.7-6.5c1.8-2.3,5-3.4,9.7-3.4c3.5,0,6.2,0.6,8.2,1.8c1.9,1.2,3.2,2.5,3.8,3.8c0.6,1.3,0.9,2.3,0.9,3
		c0,0.4-0.1,0.7-0.4,1.1c-0.3,0.4-0.8,0.6-1.5,0.6c-0.5,0-0.8-0.1-1.1-0.4c-0.3-0.3-0.6-0.8-0.8-1.7c-0.8-2.2-2.5-3.6-5.3-4.4
		c-1.2-0.3-2.4-0.5-3.5-0.5c-2.4,0-4.4,0.5-6.1,1.5c-1.6,1-2.4,2.4-2.4,4.2c0,1.3,0.4,2.4,1.3,3.2c0.9,0.8,2,1.5,3.4,2
		s3.3,1,5.6,1.5c3.9,0.8,7,2,9.3,3.3S155.3,66.5,155.3,69.8L155.3,69.8z M168,77.1c0,1.1-0.1,1.9-0.3,2.5c-0.2,0.6-0.8,0.9-1.7,0.9
		c-0.9,0-1.5-0.3-1.7-0.9c-0.2-0.6-0.4-1.4-0.4-2.5V33.6c0-1.1,0.1-2,0.3-2.6c0.2-0.6,0.8-0.9,1.7-0.9c1,0,1.5,0.3,1.8,0.9
		c0.2,0.6,0.4,1.5,0.4,2.6L168,77.1L168,77.1z M183.5,34.1c0,0.7-0.3,1.3-0.8,1.9c-0.5,0.5-1.1,0.8-1.9,0.8c-0.7,0-1.4-0.3-1.9-0.8
		c-0.5-0.5-0.8-1.2-0.8-1.8c0-0.8,0.3-1.4,0.8-1.9c0.5-0.5,1.2-0.8,1.9-0.8c0.7,0,1.4,0.2,1.9,0.7C183.3,32.7,183.5,33.3,183.5,34.1
		L183.5,34.1z M182.9,77.1c0,1.1-0.1,1.9-0.3,2.5c-0.2,0.6-0.8,0.9-1.7,0.9c-0.9,0-1.5-0.3-1.7-0.9c-0.2-0.6-0.4-1.4-0.4-2.5V47.1
		c0-1.1,0.1-2,0.4-2.6c0.2-0.6,0.8-0.9,1.7-0.9c0.9,0,1.5,0.3,1.7,0.9c0.2,0.6,0.3,1.5,0.3,2.5V77.1z M224.7,77.1
		c0,1.1-0.1,1.9-0.3,2.5c-0.2,0.6-0.8,0.9-1.7,0.9c-0.9,0-1.5-0.3-1.7-0.9c-0.3-0.6-0.4-1.5-0.4-2.5v-2.8c-1,1.1-2.1,2.1-3,2.9
		c-1,0.8-2.3,1.6-4,2.3c-1.7,0.7-3.8,1-6.2,1c-3.7,0-6.7-0.9-9.1-2.8c-2.4-1.9-4.1-4.3-5.1-7.2c-1-2.9-1.6-5.8-1.6-8.8
		c0-2.9,0.5-5.8,1.5-8.5c1-2.8,2.7-5.1,5.1-6.9s5.4-2.7,9.2-2.7c3.6,0,6.4,0.6,8.3,1.9c1.9,1.3,3.6,2.8,4.8,4.6V33.5
		c0-1,0.1-1.8,0.4-2.5c0.3-0.6,0.8-0.9,1.7-0.9c0.9,0,1.5,0.3,1.7,0.9s0.3,1.4,0.3,2.5L224.7,77.1z M220.6,61.9c0-3.6-0.7-6.5-2-8.8
		c-1.3-2.2-3-3.8-5-4.8c-2-0.9-3.9-1.4-5.9-1.4c-2.2,0-4.2,0.6-6,1.7s-3.2,2.9-4.3,5.1c-1.1,2.3-1.6,5-1.6,8.2c0,3.3,0.6,6,1.7,8.3
		c1.1,2.3,2.6,4,4.5,5.1c1.9,1.1,3.8,1.7,5.9,1.7c3.4,0,6.2-1,8.5-3.1c1.2-1.1,2.2-2.6,2.9-4.4C220.2,67.8,220.6,65.2,220.6,61.9
		L220.6,61.9z M264.7,59.6c0,1.3-0.3,2.1-0.9,2.4c-0.6,0.3-1.6,0.5-2.9,0.5h-23.1c0,2.1,0.3,4.1,0.8,5.8c0.5,1.8,1.2,3.3,2.2,4.6
		c1,1.3,2.3,2.4,3.8,3.1c1.5,0.7,3.2,1.1,5.1,1.1c1.8,0,3.6-0.5,5.6-1.4c2-1,3.6-3,4.8-6.2c0.4-1,1-1.5,2-1.5c0.6,0,1.1,0.2,1.5,0.6
		c0.4,0.4,0.6,0.8,0.6,1.3c0,0.8-0.5,2-1.4,3.7c-0.9,1.7-2.5,3.3-4.7,4.7c-2.2,1.5-5,2.2-8.5,2.2c-5.3,0-9.3-1.7-12-5.1
		c-2.7-3.4-4.1-7.9-4.1-13.3c0-3.7,0.6-7,1.9-9.8c1.3-2.8,3.1-4.9,5.5-6.5c2.4-1.5,5.3-2.3,8.7-2.3c4.5,0,7.8,1.2,10.1,3.5
		c2.3,2.3,3.7,4.7,4.3,7.1C264.4,56.5,264.7,58.4,264.7,59.6L264.7,59.6z M260.4,59.2c-0.1-1.2-0.2-2.1-0.3-2.9
		c-0.1-0.7-0.3-1.6-0.7-2.6c-0.4-1-0.9-1.9-1.6-2.9c-0.8-1.1-2-2-3.4-2.7c-1.5-0.7-3.1-1.1-5-1.1c-3.6,0-6.4,1.4-8.5,4.1
		c-1,1.4-1.7,2.6-2.1,3.8c-0.4,1.2-0.7,2.6-0.9,4.3H260.4z M279.5,53c0,1.2,0.6,2.1,1.8,2.8c1.2,0.7,4,1.5,8.2,2.6
		c8.2,2,12.3,5.4,12.3,10.3c0,3.8-1.4,6.8-4.2,8.8c-2.8,2-6.7,3.1-11.7,3.1c-5.1,0-8.9-1-11.4-3.1c-2.6-2.1-3.8-4.3-3.8-6.6
		c0-1,0.4-1.9,1.1-2.6c0.7-0.7,1.6-1.1,2.6-1.1c1.4,0,2.7,0.9,3.7,2.7c1.2,2,2.5,3.2,4,3.9c1.4,0.6,3,0.9,4.6,0.9
		c1.8,0,3.3-0.4,4.4-1.2c1.1-0.8,1.7-1.8,1.7-3.1c0-1.1-0.5-2.1-1.5-3c-1-0.8-3.6-1.7-7.9-2.7c-4.3-1-7.5-2.4-9.4-4.2
		c-2-1.8-3-3.9-3-6.4c0-2.8,1.2-5.2,3.6-7.4c2.4-2.1,6-3.2,10.8-3.2c4.4,0,7.9,0.9,10.6,2.7c2.6,1.8,3.9,3.7,3.9,5.6
		c0,1-0.3,1.9-1,2.6c-0.7,0.7-1.6,1-2.8,1c-1.8,0-3.3-1-4.7-3c-1.4-2-3.5-3-6.4-3c-1.5,0-2.9,0.3-4,0.9C280,51,279.5,51.9,279.5,53
		L279.5,53z M341.7,57.6v16.6c0,4.2-1.5,6.4-4.6,6.4c-1.4,0-2.5-0.4-3.3-1.3c-0.8-0.9-1.2-2.6-1.2-5V59.7c0-3.4-0.5-5.8-1.6-7.1
		c-1.1-1.3-2.6-1.9-4.6-1.9c-1.7,0-3.2,0.5-4.5,1.4c-1.3,1-2.2,2.1-2.7,3.5c-0.5,1.4-0.8,3.9-0.8,7.4v10.5c0,2.8-0.4,4.7-1.2,5.6
		c-0.8,0.9-1.9,1.4-3.4,1.4c-1.4,0-2.5-0.4-3.3-1.3c-0.8-0.9-1.2-2.7-1.2-5.5V37.6c0-2.2,0.1-3.7,0.3-4.6c0.2-0.9,0.7-1.6,1.5-2.1
		c0.8-0.5,1.6-0.8,2.7-0.8c1.2,0,2.1,0.3,2.9,0.9c0.8,0.6,1.3,1.4,1.5,2.4c0.2,1,0.3,2.6,0.3,4.9v10.7c3-3.7,6.7-5.5,11.1-5.5
		c3.7,0,6.6,1.1,8.8,3.4C340.6,49.2,341.7,52.8,341.7,57.6L341.7,57.6z M379.5,80.6c-1.8,0-3.8-1.7-5.8-5.1
		c-4.3,3.4-8.6,5.1-12.7,5.1c-3.9,0-6.9-1-9.1-3c-2.1-2-3.2-4.4-3.2-7.3c0-2.5,0.7-4.5,2.1-6c1.4-1.5,3-2.6,4.7-3.2
		c1.7-0.6,4.4-1.3,8.2-2.1c3.8-0.8,6.9-1.5,9.2-2.2c0-2.8-0.6-4.6-1.6-5.6c-1.1-1-2.7-1.4-4.9-1.4c-4.1,0-6.8,1.2-8.1,3.5
		c-0.7,1.3-1.3,2.2-1.9,2.8c-0.6,0.6-1.4,0.8-2.4,0.8c-1,0-1.8-0.3-2.6-0.9c-0.8-0.6-1.2-1.4-1.2-2.4c0-2.4,1.3-4.6,3.8-6.7
		c2.6-2.1,6.6-3.2,12-3.2c5.5,0,9.6,1,12.2,2.9c2.6,1.9,3.8,5.8,3.6,11.6l-0.2,8.5c-0.1,2.6,0.2,4.8,0.8,6.5
		c0.6,1.7,0.9,2.9,0.9,3.8c0,1-0.4,1.8-1.3,2.5C381.5,80.2,380.5,80.6,379.5,80.6L379.5,80.6z M373.1,62.3c-1.4,0.5-3.6,1.1-6.7,1.7
		c-3.1,0.6-5.3,1.3-6.6,2.1c-1.3,0.8-1.9,2-1.9,3.5c0,1.3,0.5,2.5,1.5,3.5c1,1,2.5,1.5,4.4,1.5c2,0,3.9-0.5,5.6-1.7
		c1.7-1.1,2.8-2.4,3.2-3.9C372.9,67.5,373.1,65.3,373.1,62.3L373.1,62.3z M391.1,73V49.7c0-4.1,1.5-6.1,4.5-6.1
		c2.9,0,4.3,1.9,4.4,5.7c1.9-3.8,4.5-5.7,7.8-5.7c1.8,0,3.6,0.5,5.4,1.4c1.9,0.9,2.8,2.2,2.8,3.8c0,1.1-0.4,2-1.1,2.7
		c-0.8,0.7-1.6,1.1-2.4,1.1c-0.5,0-1.4-0.2-2.6-0.6c-1.3-0.4-2.3-0.6-3.2-0.6c-2.2,0-3.8,1.1-4.9,3.3c-1.1,2.2-1.6,6.4-1.6,12.7v5.3
		c0,2.3-0.1,3.9-0.3,4.7c-0.2,0.8-0.7,1.5-1.5,2.2c-0.8,0.7-1.7,1-2.8,1c-1,0-1.9-0.3-2.7-0.9c-0.8-0.6-1.3-1.3-1.5-2.1
		C391.2,76.8,391.1,75.3,391.1,73L391.1,73z M444.8,64.3h-17.8c0.1,3.4,1,5.9,2.8,7.6c1.8,1.7,3.9,2.6,6.3,2.6c3,0,5.9-1.3,8.6-4
		c1.1-1.1,1.9-1.8,2.4-2.1c0.5-0.3,1.1-0.4,1.7-0.4c0.8,0,1.5,0.3,2.1,0.8c0.6,0.5,0.9,1.1,0.9,1.9c0,2-1.4,4.2-4.2,6.4
		c-2.8,2.3-6.6,3.4-11.4,3.4c-6.1,0-10.7-1.7-13.8-5.1c-3.1-3.4-4.7-7.9-4.7-13.3c0-5.5,1.6-10,4.7-13.4c3.1-3.4,7.5-5.1,13.1-5.1
		c5.3,0,9.5,1.6,12.4,4.8c2.9,3.2,4.4,6.7,4.4,10.5c0,1.7-0.5,3-1.4,4C449.8,63.8,447.8,64.3,444.8,64.3L444.8,64.3z M435.2,49.8
		c-4.8,0-7.6,3.1-8.3,9.3h16.5c-0.1-3-0.9-5.3-2.5-6.9C439.4,50.6,437.5,49.8,435.2,49.8z"/>
	<path id="XMLID_2059_" class="st0" d="M54.4,47.1c0,7.1-6.1,12.8-13.7,12.8s-13.7-5.7-13.7-12.8c0-7.1,6.1-12.8,13.7-12.8
		C48.3,34.3,54.4,40,54.4,47.1"/>
	<path id="XMLID_1823_" class="st0" d="M58.9,47.1c0,7.1,6.1,12.8,13.7,12.8c7.5,0,13.7-5.7,13.7-12.8c0-7.1-6.1-12.8-13.7-12.8
		C65,34.3,58.9,40,58.9,47.1"/>
	<path id="XMLID_793_" class="st0" d="M107.2,54.2c-0.4,0.3-0.9,0.6-1.3,0.9V11.3c0-6.1-4.6-11-10.2-11H16.2C10.5,0.3,6,5.2,6,11.3
		v43.9c-0.5-0.3-0.9-0.6-1.4-0.9c-3.4-2.4-5.6,0.9-3.5,3.9c4,5,11.7,11.1,23.5,15.9c-12.5,42.5,30.4,49.2,29.8,27.4
		c0,0.4,0-12.4,0-21.4c1.1,0.3,2.1,0.5,3,0.7c0,9,0,21.1,0,20.7c-0.7,21.8,42.3,15,29.8-27.4c11.8-4.8,19.5-11,23.5-15.9
		C112.8,55.1,110.6,51.9,107.2,54.2z M64.9,65.1c-5.2-0.3-7.2,2-7.4,5.5c-1.3-0.9-2.6-2-3.9-3.2c-0.2-0.2-0.5-0.4-0.7-0.6
		c-0.4-0.4-0.8-0.7-1.4-1c-0.2-0.1-0.4-0.2-0.6-0.3c-1-0.4-2.3-0.5-3.9-0.5c-7,0.2-19.9,1.6-34.9-6.3V16.2c0-7.7,2-10.1,9-10.1h70.4
		c6.7,0,9,2.9,9,10.1v42.2C85.2,66.7,72,65.3,64.9,65.1z"/>
	<path id="XMLID_687_" class="st1" d="M256.1,91.4c0-1.6,0.8-2.1,2.1-2.1h5.5c3,0,5.5,1.5,5.5,5c0,2.9-2,5-5.5,5h-4v4.3
		c0,1.1-0.7,1.8-1.8,1.8c-1.1,0-1.8-0.7-1.8-1.8L256.1,91.4L256.1,91.4z M259.7,96.5h3.4c1.5,0,2.5-0.9,2.5-2.2
		c0-1.6-1.1-2.2-2.9-2.2h-3L259.7,96.5z M272.5,94.8c0-1,0.6-1.5,1.5-1.5c0.8,0,1.5,0.5,1.5,1.5V96h0c0.4-1.3,1.1-2.7,2.7-2.7
		c1,0,1.8,0.7,1.8,1.6c0,1.2-0.8,1.6-1.6,1.6h-0.6c-1.3,0-2,0.9-2,3.6v3.7c0,0.9-0.4,1.6-1.6,1.6c-1.3,0-1.6-0.7-1.6-1.6L272.5,94.8
		L272.5,94.8L272.5,94.8z M284.8,100c0,1.7,1.1,2.9,3,2.9c2.4,0,2.4-1.6,3.7-1.6c0.8,0,1.3,0.7,1.3,1.3c0,1.9-3.1,2.8-5,2.8
		c-4.5,0-6.2-3-6.2-5.8c0-3.7,2.3-6.2,6.1-6.2c3.7,0,5.8,2.6,5.8,5.3c0,1.1-0.3,1.4-1.4,1.4L284.8,100L284.8,100z M290.4,98.1
		c-0.2-1.5-1.3-2.5-2.7-2.5c-1.6,0-2.6,1-2.9,2.5H290.4z M300.9,93.3c2.4,0,4.9,1,4.9,2.4c0,0.7-0.5,1.4-1.3,1.4
		c-1.3,0-1.3-1.5-3.3-1.5c-1.1,0-1.8,0.3-1.8,1c0,0.7,0.7,0.9,1.7,1.1l1.3,0.3c1.8,0.4,4,1.2,4,3.4c0,2.6-2.5,3.8-4.9,3.8
		c-2.9,0-5.3-1.3-5.3-2.9c0-0.7,0.4-1.3,1.3-1.3c1.4,0,1.5,2,3.9,2c1.1,0,1.9-0.5,1.9-1.2c0-0.8-0.7-0.9-1.8-1.2l-1.9-0.5
		c-1.9-0.5-3.3-1.2-3.3-3.4C296.1,94.3,298.7,93.3,300.9,93.3L300.9,93.3z M312.2,100c0,1.7,1.1,2.9,3,2.9c2.4,0,2.4-1.6,3.7-1.6
		c0.8,0,1.3,0.7,1.3,1.3c0,1.9-3.1,2.8-5,2.8c-4.5,0-6.2-3-6.2-5.8c0-3.7,2.3-6.2,6.1-6.2c3.7,0,5.8,2.6,5.8,5.3
		c0,1.1-0.3,1.4-1.4,1.4L312.2,100L312.2,100z M317.9,98.1c-0.2-1.5-1.3-2.5-2.7-2.5c-1.6,0-2.6,1-2.9,2.5H317.9z M324.1,94.9
		c0-1,0.4-1.6,1.5-1.6c1,0,1.5,0.6,1.5,1.6v0.4h0c0.9-1.2,2.1-2,3.9-2c1.9,0,4,1,4,4.2v6.2c0,0.9-0.4,1.6-1.6,1.6s-1.6-0.7-1.6-1.6
		v-5.6c0-1.3-0.6-2.2-2-2.2c-1.4,0-2.5,1.2-2.4,2.5v5.3c0,0.9-0.4,1.6-1.6,1.6c-1.3,0-1.6-0.7-1.6-1.6L324.1,94.9L324.1,94.9z
		 M339.4,95.7h-0.5c-0.9,0-1.3-0.4-1.3-1.1c0-0.7,0.4-1.1,1.3-1.1h0.5v-2c0-1.1,0.6-1.6,1.6-1.6c1,0,1.6,0.5,1.6,1.6v2h1
		c0.9,0,1.5,0.3,1.5,1.1c0,0.8-0.5,1.1-1.5,1.1h-1v6.4c0,0.5,0.3,0.7,0.8,0.7h0.5c0.7,0,1.1,0.4,1.1,1.1c0,0.9-0.8,1.4-2.3,1.4
		c-2.3,0-3.3-1-3.3-2.9L339.4,95.7L339.4,95.7z M359.3,98.9l-4.4-7.3c-0.2-0.3-0.3-0.6-0.3-0.9c0-1.2,1.1-1.6,1.8-1.6
		c0.9,0,1.3,0.4,1.6,1.1l3.1,5.8l3.1-5.8c0.4-0.8,0.8-1.1,1.6-1.1c0.7,0,1.8,0.4,1.8,1.6c0,0.3-0.1,0.7-0.3,0.9l-4.4,7.3v4.7
		c0,1.1-0.7,1.8-1.8,1.8c-1.1,0-1.8-0.7-1.8-1.8L359.3,98.9z M374,93.3c3.9,0,5.9,2.6,5.9,6c0,3.2-1.6,6-5.9,6c-4.4,0-5.9-2.8-5.9-6
		C368.1,96,370.1,93.3,374,93.3z M374,103c1.9,0,2.7-1.7,2.7-3.7c0-2.1-0.9-3.6-2.7-3.6c-1.9,0-2.7,1.6-2.7,3.6
		C371.3,101.3,372.1,103,374,103z M394,103.8c0,1-0.4,1.6-1.5,1.6c-1,0-1.5-0.6-1.5-1.6v-0.4h0c-0.9,1.2-2.1,2-3.9,2
		c-1.9,0-4-1-4-4.2v-6.2c0-0.9,0.4-1.6,1.6-1.6c1.3,0,1.6,0.7,1.6,1.6v5.6c0,1.3,0.6,2.2,2,2.2c1.4,0,2.5-1.2,2.4-2.5v-5.3
		c0-0.9,0.4-1.6,1.6-1.6s1.6,0.7,1.6,1.6L394,103.8L394,103.8z M397.8,94.8c0-1,0.6-1.5,1.5-1.5c0.8,0,1.5,0.5,1.5,1.5V96h0
		c0.4-1.3,1.1-2.7,2.7-2.7c1,0,1.8,0.7,1.8,1.6c0,1.2-0.8,1.6-1.6,1.6H403c-1.3,0-2,0.9-2,3.6v3.7c0,0.9-0.4,1.6-1.6,1.6
		c-1.3,0-1.6-0.7-1.6-1.6L397.8,94.8L397.8,94.8z M412,93.3c2.4,0,4.9,1,4.9,2.4c0,0.7-0.5,1.4-1.3,1.4c-1.3,0-1.3-1.5-3.3-1.5
		c-1.1,0-1.8,0.3-1.8,1c0,0.7,0.7,0.9,1.7,1.1l1.3,0.3c1.8,0.4,4,1.2,4,3.4c0,2.6-2.5,3.8-4.9,3.8c-2.9,0-5.3-1.3-5.3-2.9
		c0-0.7,0.4-1.3,1.3-1.3c1.4,0,1.5,2,3.9,2c1.1,0,1.9-0.5,1.9-1.2c0-0.8-0.7-0.9-1.8-1.2l-1.9-0.5c-1.9-0.5-3.3-1.2-3.3-3.4
		C407.2,94.3,409.8,93.3,412,93.3L412,93.3z M423.3,100c0,1.7,1.1,2.9,3,2.9c2.4,0,2.4-1.6,3.7-1.6c0.8,0,1.3,0.7,1.3,1.3
		c0,1.9-3.1,2.8-5,2.8c-4.5,0-6.2-3-6.2-5.8c0-3.7,2.3-6.2,6.1-6.2c3.7,0,5.8,2.6,5.8,5.3c0,1.1-0.3,1.4-1.4,1.4L423.3,100
		L423.3,100z M428.9,98.1c-0.2-1.5-1.3-2.5-2.7-2.5c-1.6,0-2.6,1-2.9,2.5H428.9z M435.3,90.6c0-1.1,0.6-1.6,1.6-1.6s1.6,0.5,1.6,1.6
		v13.2c0,1.1-0.6,1.6-1.6,1.6s-1.6-0.5-1.6-1.6V90.6z M443.3,95.7h-0.7c-0.9,0-1.3-0.4-1.3-1.1c0-0.7,0.4-1.1,1.3-1.1h0.7V92
		c0-2,1.7-3.1,3.5-3.1c1.2,0,2.1,0.5,2.1,1.5c0,0.6-0.5,1.1-1,1.1c-0.2,0-0.5-0.1-0.7-0.1c-0.5,0-0.7,0.3-0.7,0.7v1.4h1
		c0.9,0,1.5,0.3,1.5,1.1c0,0.8-0.5,1.1-1.5,1.1h-1v8.1c0,1.1-0.6,1.6-1.6,1.6c-1,0-1.6-0.5-1.6-1.6L443.3,95.7L443.3,95.7z"/>
</g>
</svg>
